<?xml version="1.0" encoding="UTF-8"?><svg id="Layer_1" xmlns="http://www.w3.org/2000/svg" width="705" height="405" viewBox="0 0 705 405"><rect x="-460.99" y="-619.85" width="1366" height="1389" fill="none"/><rect x="-460.99" y="-619.85" width="1366" height="1389" fill="none"/><rect x="-460.99" y="-619.85" width="1366" height="1389" fill="none"/><rect id="Rectangle-Copy-17" x="134.5" y="264.9" width="130" height="33" fill="#2074b6"/><g isolation="isolate"><path d="M171.21,284.18l2.25-.22c.14,.75,.41,1.31,.82,1.66s.97,.53,1.68,.53c.74,0,1.31-.16,1.68-.47,.38-.32,.57-.68,.57-1.11,0-.27-.08-.5-.24-.69-.16-.19-.44-.36-.83-.5-.27-.09-.89-.26-1.85-.5-1.24-.31-2.11-.68-2.61-1.13-.7-.63-1.05-1.4-1.05-2.3,0-.58,.17-1.13,.5-1.64,.33-.51,.81-.89,1.43-1.16,.62-.27,1.37-.4,2.25-.4,1.44,0,2.52,.32,3.25,.95s1.11,1.47,1.14,2.52l-2.31,.1c-.1-.59-.31-1.01-.64-1.27-.33-.26-.81-.39-1.46-.39s-1.2,.14-1.58,.41c-.25,.18-.37,.41-.37,.71,0,.27,.11,.5,.34,.7,.29,.25,1,.5,2.12,.77s1.96,.54,2.5,.82,.96,.67,1.27,1.16,.46,1.1,.46,1.82c0,.66-.18,1.27-.55,1.84-.36,.57-.88,1-1.55,1.28-.67,.28-1.5,.42-2.49,.42-1.45,0-2.56-.33-3.34-1-.78-.67-1.24-1.64-1.39-2.93Z" fill="#fff"/><path d="M182.19,284.86l2.12-.26c.07,.54,.25,.96,.55,1.24s.66,.43,1.08,.43c.45,0,.83-.17,1.14-.52,.31-.34,.46-.81,.46-1.39,0-.55-.15-.99-.45-1.31s-.66-.48-1.09-.48c-.28,0-.62,.05-1.01,.16l.24-1.79c.59,.02,1.05-.11,1.36-.39s.47-.64,.47-1.09c0-.39-.11-.69-.34-.92-.23-.23-.53-.34-.91-.34s-.7,.13-.96,.39-.43,.64-.48,1.14l-2.02-.34c.14-.69,.35-1.25,.64-1.66,.28-.41,.68-.74,1.19-.98s1.08-.36,1.71-.36c1.08,0,1.94,.34,2.59,1.03,.54,.56,.8,1.2,.8,1.91,0,1-.55,1.81-1.65,2.41,.66,.14,1.18,.46,1.57,.95,.39,.49,.59,1.08,.59,1.77,0,1-.37,1.86-1.1,2.57s-1.65,1.06-2.74,1.06c-1.04,0-1.9-.3-2.58-.89-.68-.6-1.08-1.38-1.19-2.34Z" fill="#fff"/><path d="M198.87,285.86v2.04h-7.7c.08-.77,.33-1.5,.75-2.19,.42-.69,1.24-1.61,2.47-2.75,.99-.92,1.6-1.55,1.82-1.88,.3-.45,.45-.9,.45-1.34,0-.49-.13-.87-.39-1.13-.26-.26-.63-.39-1.09-.39s-.82,.14-1.09,.41c-.27,.28-.43,.73-.47,1.38l-2.19-.22c.13-1.21,.54-2.08,1.23-2.6s1.55-.79,2.58-.79c1.13,0,2.02,.3,2.66,.91,.65,.61,.97,1.37,.97,2.27,0,.52-.09,1.01-.28,1.47-.19,.47-.48,.95-.88,1.46-.27,.34-.75,.83-1.44,1.46-.69,.64-1.13,1.06-1.32,1.27-.19,.21-.33,.41-.45,.61h4.36Z" fill="#fff"/><path d="M201.16,287.9v-11.45h2.31v5.09l4.67-5.09h3.11l-4.31,4.46,4.55,6.99h-2.99l-3.15-5.38-1.88,1.91v3.46h-2.31Z" fill="#fff"/><path d="M218.1,287.9h-2.2v-8.27c-.8,.75-1.75,1.3-2.84,1.66v-1.99c.57-.19,1.2-.54,1.87-1.07s1.13-1.13,1.38-1.83h1.78v11.5Z" fill="#fff"/><path d="M226.41,287.9h-2.2v-8.27c-.8,.75-1.75,1.3-2.84,1.66v-1.99c.57-.19,1.2-.54,1.87-1.07s1.13-1.13,1.38-1.83h1.78v11.5Z" fill="#fff"/></g><g id="Group-Copy"><rect id="Rectangle-Copy-17-2" x="398.5" y="136.9" width="131" height="33" fill="#2074b6"/><g isolation="isolate"><path d="M435.27,155.18l2.25-.22c.14,.75,.41,1.31,.82,1.66s.97,.53,1.68,.53c.75,0,1.31-.16,1.68-.47s.57-.68,.57-1.11c0-.27-.08-.5-.24-.69s-.44-.36-.83-.5c-.27-.09-.89-.26-1.85-.5-1.24-.31-2.11-.68-2.61-1.13-.7-.63-1.05-1.4-1.05-2.3,0-.58,.17-1.13,.5-1.64s.81-.89,1.43-1.16,1.37-.4,2.25-.4c1.44,0,2.52,.32,3.25,.95s1.11,1.47,1.14,2.52l-2.31,.1c-.1-.59-.31-1.01-.64-1.27s-.81-.39-1.46-.39-1.2,.14-1.58,.41c-.25,.18-.37,.41-.37,.71,0,.27,.11,.5,.34,.7,.29,.25,1,.5,2.12,.77s1.96,.54,2.5,.82,.96,.67,1.27,1.16,.46,1.1,.46,1.82c0,.66-.18,1.27-.55,1.84s-.88,1-1.55,1.28-1.5,.42-2.49,.42c-1.45,0-2.56-.33-3.34-1s-1.24-1.64-1.39-2.93Z" fill="#fff"/><path d="M446.25,155.86l2.12-.26c.07,.54,.25,.96,.55,1.24s.66,.43,1.08,.43c.45,0,.83-.17,1.14-.52s.46-.81,.46-1.39c0-.55-.15-.99-.45-1.31s-.66-.48-1.09-.48c-.28,0-.62,.05-1.01,.16l.24-1.79c.59,.02,1.05-.11,1.36-.39s.47-.64,.47-1.09c0-.39-.11-.69-.34-.92s-.53-.34-.91-.34-.7,.13-.96,.39-.43,.64-.48,1.14l-2.02-.34c.14-.69,.35-1.25,.64-1.66s.68-.74,1.19-.98,1.08-.36,1.71-.36c1.08,0,1.94,.34,2.59,1.03,.54,.56,.8,1.2,.8,1.91,0,1-.55,1.81-1.65,2.41,.66,.14,1.18,.46,1.57,.95s.59,1.08,.59,1.77c0,1-.37,1.86-1.1,2.57s-1.65,1.06-2.74,1.06c-1.04,0-1.9-.3-2.58-.89s-1.08-1.38-1.19-2.34Z" fill="#fff"/><path d="M462.93,156.86v2.04h-7.7c.08-.77,.33-1.5,.75-2.19s1.24-1.61,2.47-2.75c.99-.92,1.6-1.55,1.82-1.88,.3-.45,.45-.9,.45-1.34,0-.49-.13-.87-.39-1.13s-.63-.39-1.09-.39-.82,.14-1.09,.41-.43,.73-.47,1.38l-2.19-.22c.13-1.21,.54-2.08,1.23-2.6s1.55-.79,2.58-.79c1.13,0,2.02,.3,2.66,.91s.97,1.37,.97,2.27c0,.52-.09,1.01-.28,1.47s-.48,.95-.88,1.46c-.27,.34-.75,.83-1.44,1.46s-1.13,1.06-1.32,1.27-.33,.41-.45,.61h4.36Z" fill="#fff"/><path d="M465.22,158.9v-11.45h2.31v5.09l4.67-5.09h3.11l-4.31,4.46,4.55,6.99h-2.99l-3.15-5.38-1.88,1.91v3.46h-2.31Z" fill="#fff"/><path d="M476.47,155.86l2.12-.26c.07,.54,.25,.96,.55,1.24s.66,.43,1.08,.43c.45,0,.83-.17,1.14-.52,.31-.34,.46-.81,.46-1.39,0-.55-.15-.99-.45-1.31s-.66-.48-1.09-.48c-.28,0-.62,.05-1.01,.16l.24-1.79c.59,.02,1.05-.11,1.36-.39s.47-.64,.47-1.09c0-.39-.12-.69-.34-.92-.23-.23-.53-.34-.91-.34s-.7,.13-.96,.39-.43,.64-.48,1.14l-2.02-.34c.14-.69,.35-1.25,.64-1.66,.28-.41,.68-.74,1.19-.98s1.08-.36,1.71-.36c1.08,0,1.94,.34,2.59,1.03,.54,.56,.8,1.2,.8,1.91,0,1-.55,1.81-1.65,2.41,.66,.14,1.18,.46,1.57,.95,.39,.49,.59,1.08,.59,1.77,0,1-.37,1.86-1.1,2.57s-1.65,1.06-2.74,1.06c-1.04,0-1.9-.3-2.58-.89-.68-.6-1.08-1.38-1.19-2.34Z" fill="#fff"/><path d="M493.15,156.86v2.04h-7.7c.08-.77,.33-1.5,.75-2.19,.42-.69,1.24-1.61,2.47-2.75,.99-.92,1.6-1.55,1.82-1.88,.3-.45,.45-.9,.45-1.34,0-.49-.13-.87-.39-1.13-.26-.26-.63-.39-1.09-.39s-.82,.14-1.09,.41c-.27,.28-.43,.73-.47,1.38l-2.19-.22c.13-1.21,.54-2.08,1.23-2.6s1.55-.79,2.58-.79c1.13,0,2.02,.3,2.66,.91,.65,.61,.97,1.37,.97,2.27,0,.52-.09,1.01-.28,1.47-.19,.47-.48,.95-.88,1.46-.27,.34-.75,.83-1.44,1.46-.69,.64-1.13,1.06-1.32,1.27-.19,.21-.33,.41-.45,.61h4.36Z" fill="#fff"/></g></g><g id="Group-Copy-3"><rect id="Rectangle-Copy-17-3" x="331" y="96.9" width="198" height="33" fill="#a6cdeb"/><g isolation="isolate"><path d="M400.77,115.18l2.25-.22c.14,.75,.41,1.31,.82,1.66s.97,.53,1.68,.53c.75,0,1.31-.16,1.68-.47s.57-.68,.57-1.11c0-.27-.08-.5-.24-.69s-.44-.36-.83-.5c-.27-.09-.89-.26-1.85-.5-1.24-.31-2.11-.68-2.61-1.13-.7-.63-1.05-1.4-1.05-2.3,0-.58,.17-1.13,.5-1.64s.81-.89,1.43-1.16,1.37-.4,2.25-.4c1.44,0,2.52,.32,3.25,.95s1.11,1.47,1.14,2.52l-2.31,.1c-.1-.59-.31-1.01-.64-1.27s-.81-.39-1.46-.39-1.2,.14-1.58,.41c-.25,.18-.37,.41-.37,.71,0,.27,.11,.5,.34,.7,.29,.25,1,.5,2.12,.77s1.96,.54,2.5,.82,.96,.67,1.27,1.16,.46,1.1,.46,1.82c0,.66-.18,1.27-.55,1.84s-.88,1-1.55,1.28-1.5,.42-2.49,.42c-1.45,0-2.56-.33-3.34-1s-1.24-1.64-1.39-2.93Z" fill="#20272d"/><path d="M411.75,115.86l2.12-.26c.07,.54,.25,.96,.55,1.24s.66,.43,1.08,.43c.45,0,.83-.17,1.14-.52s.46-.81,.46-1.39c0-.55-.15-.99-.45-1.31s-.66-.48-1.09-.48c-.28,0-.62,.05-1.01,.16l.24-1.79c.59,.02,1.05-.11,1.36-.39s.47-.64,.47-1.09c0-.39-.11-.69-.34-.92s-.53-.34-.91-.34-.7,.13-.96,.39-.43,.64-.48,1.14l-2.02-.34c.14-.69,.35-1.25,.64-1.66s.68-.74,1.19-.98,1.08-.36,1.71-.36c1.08,0,1.94,.34,2.59,1.03,.54,.56,.8,1.2,.8,1.91,0,1-.55,1.81-1.65,2.41,.66,.14,1.18,.46,1.57,.95s.59,1.08,.59,1.77c0,1-.37,1.86-1.1,2.57s-1.65,1.06-2.74,1.06c-1.04,0-1.9-.3-2.58-.89s-1.08-1.38-1.19-2.34Z" fill="#20272d"/><path d="M428.43,116.86v2.04h-7.7c.08-.77,.33-1.5,.75-2.19s1.24-1.61,2.47-2.75c.99-.92,1.6-1.55,1.82-1.88,.3-.45,.45-.9,.45-1.34,0-.49-.13-.87-.39-1.13s-.63-.39-1.09-.39-.82,.14-1.09,.41-.43,.73-.47,1.38l-2.19-.22c.13-1.21,.54-2.08,1.23-2.6s1.55-.79,2.58-.79c1.13,0,2.02,.3,2.66,.91s.97,1.37,.97,2.27c0,.52-.09,1.01-.28,1.47s-.48,.95-.88,1.46c-.27,.34-.75,.83-1.44,1.46s-1.13,1.06-1.32,1.27-.33,.41-.45,.61h4.36Z" fill="#20272d"/><path d="M430.72,118.9v-11.45h2.31v5.09l4.67-5.09h3.11l-4.31,4.46,4.55,6.99h-2.99l-3.15-5.38-1.88,1.91v3.46h-2.31Z" fill="#20272d"/><path d="M441.97,115.86l2.12-.26c.07,.54,.25,.96,.55,1.24s.66,.43,1.08,.43c.45,0,.83-.17,1.14-.52,.31-.34,.46-.81,.46-1.39,0-.55-.15-.99-.45-1.31s-.66-.48-1.09-.48c-.28,0-.62,.05-1.01,.16l.24-1.79c.59,.02,1.05-.11,1.36-.39s.47-.64,.47-1.09c0-.39-.12-.69-.34-.92-.23-.23-.53-.34-.91-.34s-.7,.13-.96,.39-.43,.64-.48,1.14l-2.02-.34c.14-.69,.35-1.25,.64-1.66,.28-.41,.68-.74,1.19-.98s1.08-.36,1.71-.36c1.08,0,1.94,.34,2.59,1.03,.54,.56,.8,1.2,.8,1.91,0,1-.55,1.81-1.65,2.41,.66,.14,1.18,.46,1.57,.95,.39,.49,.59,1.08,.59,1.77,0,1-.37,1.86-1.1,2.57s-1.65,1.06-2.74,1.06c-1.04,0-1.9-.3-2.58-.89-.68-.6-1.08-1.38-1.19-2.34Z" fill="#20272d"/><path d="M455.54,118.9v-2.3h-4.69v-1.92l4.97-7.27h1.84v7.27h1.42v1.93h-1.42v2.3h-2.12Zm0-4.23v-3.91l-2.63,3.91h2.63Z" fill="#20272d"/></g></g><g id="Group-Copy-2"><rect id="Rectangle-Copy-17-4" x="604" y="135.9" width="95" height="33" fill="#2074b6"/><g isolation="isolate"><path d="M622.77,154.18l2.25-.22c.14,.75,.41,1.31,.82,1.66s.97,.53,1.68,.53c.75,0,1.31-.16,1.68-.47s.57-.68,.57-1.11c0-.27-.08-.5-.24-.69s-.44-.36-.83-.5c-.27-.09-.89-.26-1.85-.5-1.24-.31-2.11-.68-2.61-1.13-.7-.63-1.05-1.4-1.05-2.3,0-.58,.17-1.13,.5-1.64s.81-.89,1.43-1.16,1.37-.4,2.25-.4c1.44,0,2.52,.32,3.25,.95s1.11,1.47,1.14,2.52l-2.31,.1c-.1-.59-.31-1.01-.64-1.27s-.81-.39-1.46-.39-1.2,.14-1.58,.41c-.25,.18-.37,.41-.37,.71,0,.27,.11,.5,.34,.7,.29,.25,1,.5,2.12,.77s1.96,.54,2.5,.82,.96,.67,1.27,1.16,.46,1.1,.46,1.82c0,.66-.18,1.27-.55,1.84s-.88,1-1.55,1.28-1.5,.42-2.49,.42c-1.45,0-2.56-.33-3.34-1s-1.24-1.64-1.39-2.93Z" fill="#fff"/><path d="M633.75,154.86l2.12-.26c.07,.54,.25,.96,.55,1.24s.66,.43,1.08,.43c.45,0,.83-.17,1.14-.52s.46-.81,.46-1.39c0-.55-.15-.99-.45-1.31s-.66-.48-1.09-.48c-.28,0-.62,.05-1.01,.16l.24-1.79c.59,.02,1.05-.11,1.36-.39s.47-.64,.47-1.09c0-.39-.11-.69-.34-.92s-.53-.34-.91-.34-.7,.13-.96,.39-.43,.64-.48,1.14l-2.02-.34c.14-.69,.35-1.25,.64-1.66s.68-.74,1.19-.98,1.08-.36,1.71-.36c1.08,0,1.94,.34,2.59,1.03,.54,.56,.8,1.2,.8,1.91,0,1-.55,1.81-1.65,2.41,.66,.14,1.18,.46,1.57,.95s.59,1.08,.59,1.77c0,1-.37,1.86-1.1,2.57s-1.65,1.06-2.74,1.06c-1.04,0-1.9-.3-2.58-.89s-1.08-1.38-1.19-2.34Z" fill="#fff"/><path d="M650.43,155.86v2.04h-7.7c.08-.77,.33-1.5,.75-2.19s1.24-1.61,2.47-2.75c.99-.92,1.6-1.55,1.82-1.88,.3-.45,.45-.9,.45-1.34,0-.49-.13-.87-.39-1.13s-.63-.39-1.09-.39-.82,.14-1.09,.41-.43,.73-.47,1.38l-2.19-.22c.13-1.21,.54-2.08,1.23-2.6s1.55-.79,2.58-.79c1.13,0,2.02,.3,2.66,.91s.97,1.37,.97,2.27c0,.52-.09,1.01-.28,1.47s-.48,.95-.88,1.46c-.27,.34-.75,.83-1.44,1.46s-1.13,1.06-1.32,1.27-.33,.41-.45,.61h4.36Z" fill="#fff"/><path d="M652.72,157.9v-11.45h2.31v5.09l4.67-5.09h3.11l-4.31,4.46,4.55,6.99h-2.99l-3.15-5.38-1.88,1.91v3.46h-2.31Z" fill="#fff"/><path d="M663.97,154.86l2.12-.26c.07,.54,.25,.96,.55,1.24s.66,.43,1.08,.43c.45,0,.83-.17,1.14-.52,.31-.34,.46-.81,.46-1.39,0-.55-.15-.99-.45-1.31s-.66-.48-1.09-.48c-.28,0-.62,.05-1.01,.16l.24-1.79c.59,.02,1.05-.11,1.36-.39s.47-.64,.47-1.09c0-.39-.12-.69-.34-.92-.23-.23-.53-.34-.91-.34s-.7,.13-.96,.39-.43,.64-.48,1.14l-2.02-.34c.14-.69,.35-1.25,.64-1.66,.28-.41,.68-.74,1.19-.98s1.08-.36,1.71-.36c1.08,0,1.94,.34,2.59,1.03,.54,.56,.8,1.2,.8,1.91,0,1-.55,1.81-1.65,2.41,.66,.14,1.18,.46,1.57,.95,.39,.49,.59,1.08,.59,1.77,0,1-.37,1.86-1.1,2.57s-1.65,1.06-2.74,1.06c-1.04,0-1.9-.3-2.58-.89-.68-.6-1.08-1.38-1.19-2.34Z" fill="#fff"/><path d="M680.65,155.86v2.04h-7.7c.08-.77,.33-1.5,.75-2.19,.42-.69,1.24-1.61,2.47-2.75,.99-.92,1.6-1.55,1.82-1.88,.3-.45,.45-.9,.45-1.34,0-.49-.13-.87-.39-1.13-.26-.26-.63-.39-1.09-.39s-.82,.14-1.09,.41c-.27,.28-.43,.73-.47,1.38l-2.19-.22c.13-1.21,.54-2.08,1.23-2.6s1.55-.79,2.58-.79c1.13,0,2.02,.3,2.66,.91,.65,.61,.97,1.37,.97,2.27,0,.52-.09,1.01-.28,1.47-.19,.47-.48,.95-.88,1.46-.27,.34-.75,.83-1.44,1.46-.69,.64-1.13,1.06-1.32,1.27-.19,.21-.33,.41-.45,.61h4.36Z" fill="#fff"/></g></g><g id="Group-Copy-4"><rect id="Rectangle-Copy-17-5" x="604" y="95.9" width="95" height="33" fill="#a6cdeb"/><g isolation="isolate"><path d="M622.77,114.18l2.25-.22c.14,.75,.41,1.31,.82,1.66s.97,.53,1.68,.53c.75,0,1.31-.16,1.68-.47s.57-.68,.57-1.11c0-.27-.08-.5-.24-.69s-.44-.36-.83-.5c-.27-.09-.89-.26-1.85-.5-1.24-.31-2.11-.68-2.61-1.13-.7-.63-1.05-1.4-1.05-2.3,0-.58,.17-1.13,.5-1.64s.81-.89,1.43-1.16,1.37-.4,2.25-.4c1.44,0,2.52,.32,3.25,.95s1.11,1.47,1.14,2.52l-2.31,.1c-.1-.59-.31-1.01-.64-1.27s-.81-.39-1.46-.39-1.2,.14-1.58,.41c-.25,.18-.37,.41-.37,.71,0,.27,.11,.5,.34,.7,.29,.25,1,.5,2.12,.77s1.96,.54,2.5,.82,.96,.67,1.27,1.16,.46,1.1,.46,1.82c0,.66-.18,1.27-.55,1.84s-.88,1-1.55,1.28-1.5,.42-2.49,.42c-1.45,0-2.56-.33-3.34-1s-1.24-1.64-1.39-2.93Z" fill="#20272d"/><path d="M633.75,114.86l2.12-.26c.07,.54,.25,.96,.55,1.24s.66,.43,1.08,.43c.45,0,.83-.17,1.14-.52s.46-.81,.46-1.39c0-.55-.15-.99-.45-1.31s-.66-.48-1.09-.48c-.28,0-.62,.05-1.01,.16l.24-1.79c.59,.02,1.05-.11,1.36-.39s.47-.64,.47-1.09c0-.39-.11-.69-.34-.92s-.53-.34-.91-.34-.7,.13-.96,.39-.43,.64-.48,1.14l-2.02-.34c.14-.69,.35-1.25,.64-1.66s.68-.74,1.19-.98,1.08-.36,1.71-.36c1.08,0,1.94,.34,2.59,1.03,.54,.56,.8,1.2,.8,1.91,0,1-.55,1.81-1.65,2.41,.66,.14,1.18,.46,1.57,.95s.59,1.08,.59,1.77c0,1-.37,1.86-1.1,2.57s-1.65,1.06-2.74,1.06c-1.04,0-1.9-.3-2.58-.89s-1.08-1.38-1.19-2.34Z" fill="#20272d"/><path d="M650.43,115.86v2.04h-7.7c.08-.77,.33-1.5,.75-2.19s1.24-1.61,2.47-2.75c.99-.92,1.6-1.55,1.82-1.88,.3-.45,.45-.9,.45-1.34,0-.49-.13-.87-.39-1.13s-.63-.39-1.09-.39-.82,.14-1.09,.41-.43,.73-.47,1.38l-2.19-.22c.13-1.21,.54-2.08,1.23-2.6s1.55-.79,2.58-.79c1.13,0,2.02,.3,2.66,.91s.97,1.37,.97,2.27c0,.52-.09,1.01-.28,1.47s-.48,.95-.88,1.46c-.27,.34-.75,.83-1.44,1.46s-1.13,1.06-1.32,1.27-.33,.41-.45,.61h4.36Z" fill="#20272d"/><path d="M652.72,117.9v-11.45h2.31v5.09l4.67-5.09h3.11l-4.31,4.46,4.55,6.99h-2.99l-3.15-5.38-1.88,1.91v3.46h-2.31Z" fill="#20272d"/><path d="M663.97,114.86l2.12-.26c.07,.54,.25,.96,.55,1.24s.66,.43,1.08,.43c.45,0,.83-.17,1.14-.52,.31-.34,.46-.81,.46-1.39,0-.55-.15-.99-.45-1.31s-.66-.48-1.09-.48c-.28,0-.62,.05-1.01,.16l.24-1.79c.59,.02,1.05-.11,1.36-.39s.47-.64,.47-1.09c0-.39-.12-.69-.34-.92-.23-.23-.53-.34-.91-.34s-.7,.13-.96,.39-.43,.64-.48,1.14l-2.02-.34c.14-.69,.35-1.25,.64-1.66,.28-.41,.68-.74,1.19-.98s1.08-.36,1.71-.36c1.08,0,1.94,.34,2.59,1.03,.54,.56,.8,1.2,.8,1.91,0,1-.55,1.81-1.65,2.41,.66,.14,1.18,.46,1.57,.95,.39,.49,.59,1.08,.59,1.77,0,1-.37,1.86-1.1,2.57s-1.65,1.06-2.74,1.06c-1.04,0-1.9-.3-2.58-.89-.68-.6-1.08-1.38-1.19-2.34Z" fill="#20272d"/><path d="M677.54,117.9v-2.3h-4.69v-1.92l4.97-7.27h1.84v7.27h1.42v1.93h-1.42v2.3h-2.12Zm0-4.23v-3.91l-2.63,3.91h2.63Z" fill="#20272d"/></g></g><g id="Group-Copy-6"><rect id="Rectangle-Copy-17-6" x="604" y="55.9" width="95" height="33" fill="#a6cdeb"/><g isolation="isolate"><path d="M610.7,74.18l2.25-.22c.13,.75,.41,1.31,.82,1.66s.97,.53,1.68,.53c.74,0,1.31-.16,1.68-.47,.38-.32,.57-.68,.57-1.11,0-.27-.08-.5-.24-.69-.16-.19-.44-.36-.83-.5-.27-.09-.89-.26-1.85-.5-1.24-.31-2.11-.68-2.61-1.13-.7-.63-1.05-1.4-1.05-2.3,0-.58,.17-1.13,.5-1.64,.33-.51,.81-.89,1.43-1.16,.62-.27,1.37-.4,2.25-.4,1.44,0,2.52,.32,3.25,.95s1.11,1.47,1.14,2.52l-2.31,.1c-.1-.59-.31-1.01-.64-1.27-.33-.26-.81-.39-1.46-.39s-1.2,.14-1.58,.41c-.25,.18-.37,.41-.37,.71,0,.27,.11,.5,.34,.7,.29,.25,1,.5,2.12,.77s1.96,.54,2.5,.82,.96,.67,1.27,1.16,.46,1.1,.46,1.82c0,.66-.18,1.27-.55,1.84-.37,.57-.88,1-1.55,1.28-.67,.28-1.5,.42-2.49,.42-1.45,0-2.56-.33-3.34-1-.78-.67-1.24-1.64-1.39-2.93Z" fill="#20272d"/><path d="M621.68,74.86l2.12-.26c.07,.54,.25,.96,.55,1.24s.66,.43,1.08,.43c.45,0,.83-.17,1.14-.52,.31-.34,.46-.81,.46-1.39,0-.55-.15-.99-.45-1.31s-.66-.48-1.09-.48c-.28,0-.62,.05-1.01,.16l.24-1.79c.59,.02,1.05-.11,1.36-.39s.47-.64,.47-1.09c0-.39-.12-.69-.34-.92-.23-.23-.53-.34-.91-.34s-.7,.13-.96,.39-.43,.64-.48,1.14l-2.02-.34c.14-.69,.35-1.25,.64-1.66,.28-.41,.68-.74,1.19-.98s1.08-.36,1.71-.36c1.08,0,1.94,.34,2.59,1.03,.54,.56,.8,1.2,.8,1.91,0,1-.55,1.81-1.65,2.41,.66,.14,1.18,.46,1.57,.95,.39,.49,.59,1.08,.59,1.77,0,1-.37,1.86-1.1,2.57s-1.65,1.06-2.74,1.06c-1.04,0-1.9-.3-2.58-.89-.68-.6-1.08-1.38-1.19-2.34Z" fill="#20272d"/><path d="M638.36,75.86v2.04h-7.7c.08-.77,.33-1.5,.75-2.19,.42-.69,1.24-1.61,2.47-2.75,.99-.92,1.6-1.55,1.82-1.88,.3-.45,.45-.9,.45-1.34,0-.49-.13-.87-.39-1.13-.26-.26-.63-.39-1.09-.39s-.82,.14-1.09,.41c-.27,.28-.43,.73-.47,1.38l-2.19-.22c.13-1.21,.54-2.08,1.23-2.6s1.55-.79,2.58-.79c1.13,0,2.02,.3,2.66,.91,.65,.61,.97,1.37,.97,2.27,0,.52-.09,1.01-.28,1.47-.19,.47-.48,.95-.88,1.46-.27,.34-.75,.83-1.44,1.46-.69,.64-1.13,1.06-1.32,1.27-.19,.21-.33,.41-.45,.61h4.36Z" fill="#20272d"/><path d="M640.65,77.9v-11.45h2.31v5.09l4.67-5.09h3.11l-4.31,4.46,4.55,6.99h-2.99l-3.15-5.38-1.88,1.91v3.46h-2.31Z" fill="#20272d"/><path d="M651.9,74.86l2.12-.26c.07,.54,.25,.96,.55,1.24s.66,.43,1.08,.43c.45,0,.83-.17,1.14-.52s.46-.81,.46-1.39c0-.55-.15-.99-.45-1.31s-.66-.48-1.09-.48c-.28,0-.62,.05-1.01,.16l.24-1.79c.59,.02,1.05-.11,1.36-.39s.47-.64,.47-1.09c0-.39-.11-.69-.34-.92s-.53-.34-.91-.34-.7,.13-.96,.39-.43,.64-.48,1.14l-2.02-.34c.14-.69,.35-1.25,.64-1.66s.68-.74,1.19-.98,1.08-.36,1.71-.36c1.08,0,1.94,.34,2.59,1.03,.54,.56,.8,1.2,.8,1.91,0,1-.55,1.81-1.65,2.41,.66,.14,1.18,.46,1.57,.95s.59,1.08,.59,1.77c0,1-.37,1.86-1.1,2.57s-1.65,1.06-2.74,1.06c-1.04,0-1.9-.3-2.58-.89s-1.08-1.38-1.19-2.34Z" fill="#20272d"/><path d="M661.19,74.96l2.19-.23c.06,.5,.25,.89,.55,1.18s.66,.43,1.06,.43c.46,0,.85-.19,1.16-.56s.48-.93,.48-1.68c0-.7-.16-1.23-.47-1.58s-.73-.53-1.23-.53c-.63,0-1.2,.28-1.7,.84l-1.78-.26,1.12-5.96h5.8v2.05h-4.14l-.34,1.95c.49-.25,.99-.37,1.5-.37,.97,0,1.8,.35,2.48,1.06s1.02,1.63,1.02,2.76c0,.94-.27,1.78-.82,2.52-.75,1.01-1.78,1.52-3.1,1.52-1.06,0-1.92-.28-2.59-.85s-1.07-1.33-1.2-2.29Z" fill="#20272d"/><path d="M669.64,78.1l2.84-11.84h1.65l-2.87,11.84h-1.62Z" fill="#20272d"/><path d="M675,74.86l2.12-.26c.07,.54,.25,.96,.55,1.24s.66,.43,1.08,.43c.45,0,.83-.17,1.14-.52s.46-.81,.46-1.39c0-.55-.15-.99-.45-1.31s-.66-.48-1.09-.48c-.28,0-.62,.05-1.01,.16l.24-1.79c.59,.02,1.05-.11,1.36-.39s.47-.64,.47-1.09c0-.39-.11-.69-.34-.92s-.53-.34-.91-.34-.7,.13-.96,.39-.43,.64-.48,1.14l-2.02-.34c.14-.69,.35-1.25,.64-1.66s.68-.74,1.19-.98,1.08-.36,1.71-.36c1.08,0,1.94,.34,2.59,1.03,.54,.56,.8,1.2,.8,1.91,0,1-.55,1.81-1.65,2.41,.66,.14,1.18,.46,1.57,.95s.59,1.08,.59,1.77c0,1-.37,1.86-1.1,2.57s-1.65,1.06-2.74,1.06c-1.04,0-1.9-.3-2.58-.89s-1.08-1.38-1.19-2.34Z" fill="#20272d"/><path d="M684.19,74.86l2.12-.26c.07,.54,.25,.96,.55,1.24s.66,.43,1.08,.43c.45,0,.83-.17,1.14-.52s.46-.81,.46-1.39c0-.55-.15-.99-.45-1.31s-.66-.48-1.09-.48c-.28,0-.62,.05-1.01,.16l.24-1.79c.59,.02,1.05-.11,1.36-.39s.47-.64,.47-1.09c0-.39-.11-.69-.34-.92s-.53-.34-.91-.34-.7,.13-.96,.39-.43,.64-.48,1.14l-2.02-.34c.14-.69,.35-1.25,.64-1.66s.68-.74,1.19-.98,1.08-.36,1.71-.36c1.08,0,1.94,.34,2.59,1.03,.54,.56,.8,1.2,.8,1.91,0,1-.55,1.81-1.65,2.41,.66,.14,1.18,.46,1.57,.95s.59,1.08,.59,1.77c0,1-.37,1.86-1.1,2.57s-1.65,1.06-2.74,1.06c-1.04,0-1.9-.3-2.58-.89s-1.08-1.38-1.19-2.34Z" fill="#20272d"/></g></g><g id="Group-Copy-5"><rect id="Rectangle-Copy-17-7" x="465" y="17.9" width="130" height="33" fill="#a6cdeb"/><g isolation="isolate"><path d="M489.7,36.18l2.25-.22c.13,.75,.41,1.31,.82,1.66s.97,.53,1.68,.53c.74,0,1.31-.16,1.68-.47,.38-.32,.57-.68,.57-1.11,0-.27-.08-.5-.24-.69-.16-.19-.44-.36-.83-.5-.27-.09-.89-.26-1.85-.5-1.24-.31-2.11-.68-2.61-1.13-.7-.63-1.05-1.4-1.05-2.3,0-.58,.17-1.13,.5-1.64,.33-.51,.81-.89,1.43-1.16,.62-.27,1.37-.4,2.25-.4,1.44,0,2.52,.32,3.25,.95s1.11,1.47,1.14,2.52l-2.31,.1c-.1-.59-.31-1.01-.64-1.27-.33-.26-.81-.39-1.46-.39s-1.2,.14-1.58,.41c-.25,.18-.37,.41-.37,.71,0,.27,.11,.5,.34,.7,.29,.25,1,.5,2.12,.77s1.96,.54,2.5,.82,.96,.67,1.27,1.16,.46,1.1,.46,1.82c0,.66-.18,1.27-.55,1.84-.37,.57-.88,1-1.55,1.28-.67,.28-1.5,.42-2.49,.42-1.45,0-2.56-.33-3.34-1-.78-.67-1.24-1.64-1.39-2.93Z" fill="#20272d"/><path d="M500.68,36.86l2.12-.26c.07,.54,.25,.96,.55,1.24s.66,.43,1.08,.43c.45,0,.83-.17,1.14-.52,.31-.34,.46-.81,.46-1.39,0-.55-.15-.99-.45-1.31s-.66-.48-1.09-.48c-.28,0-.62,.05-1.01,.16l.24-1.79c.59,.02,1.05-.11,1.36-.39s.47-.64,.47-1.09c0-.39-.12-.69-.34-.92-.23-.23-.53-.34-.91-.34s-.7,.13-.96,.39-.43,.64-.48,1.14l-2.02-.34c.14-.69,.35-1.25,.64-1.66,.28-.41,.68-.74,1.19-.98s1.08-.36,1.71-.36c1.08,0,1.94,.34,2.59,1.03,.54,.56,.8,1.2,.8,1.91,0,1-.55,1.81-1.65,2.41,.66,.14,1.18,.46,1.57,.95,.39,.49,.59,1.08,.59,1.77,0,1-.37,1.86-1.1,2.57s-1.65,1.06-2.74,1.06c-1.04,0-1.9-.3-2.58-.89-.68-.6-1.08-1.38-1.19-2.34Z" fill="#20272d"/><path d="M517.36,37.86v2.04h-7.7c.08-.77,.33-1.5,.75-2.19,.42-.69,1.24-1.61,2.47-2.75,.99-.92,1.6-1.55,1.82-1.88,.3-.45,.45-.9,.45-1.34,0-.49-.13-.87-.39-1.13-.26-.26-.63-.39-1.09-.39s-.82,.14-1.09,.41c-.27,.28-.43,.73-.47,1.38l-2.19-.22c.13-1.21,.54-2.08,1.23-2.6s1.55-.79,2.58-.79c1.13,0,2.02,.3,2.66,.91,.65,.61,.97,1.37,.97,2.27,0,.52-.09,1.01-.28,1.47-.19,.47-.48,.95-.88,1.46-.27,.34-.75,.83-1.44,1.46-.69,.64-1.13,1.06-1.32,1.27-.19,.21-.33,.41-.45,.61h4.36Z" fill="#20272d"/><path d="M519.65,39.9v-11.45h2.31v5.09l4.67-5.09h3.11l-4.31,4.46,4.55,6.99h-2.99l-3.15-5.38-1.88,1.91v3.46h-2.31Z" fill="#20272d"/><path d="M530.9,36.86l2.12-.26c.07,.54,.25,.96,.55,1.24s.66,.43,1.08,.43c.45,0,.83-.17,1.14-.52s.46-.81,.46-1.39c0-.55-.15-.99-.45-1.31s-.66-.48-1.09-.48c-.28,0-.62,.05-1.01,.16l.24-1.79c.59,.02,1.05-.11,1.36-.39s.47-.64,.47-1.09c0-.39-.11-.69-.34-.92s-.53-.34-.91-.34-.7,.13-.96,.39-.43,.64-.48,1.14l-2.02-.34c.14-.69,.35-1.25,.64-1.66s.68-.74,1.19-.98,1.08-.36,1.71-.36c1.08,0,1.94,.34,2.59,1.03,.54,.56,.8,1.2,.8,1.91,0,1-.55,1.81-1.65,2.41,.66,.14,1.18,.46,1.57,.95s.59,1.08,.59,1.77c0,1-.37,1.86-1.1,2.57s-1.65,1.06-2.74,1.06c-1.04,0-1.9-.3-2.58-.89s-1.08-1.38-1.19-2.34Z" fill="#20272d"/><path d="M540.21,37.25l2.12-.23c.05,.43,.19,.75,.41,.96s.51,.31,.87,.31c.45,0,.84-.21,1.16-.62s.52-1.28,.61-2.59c-.55,.64-1.24,.96-2.07,.96-.9,0-1.68-.35-2.33-1.04s-.98-1.6-.98-2.71,.34-2.1,1.04-2.81,1.57-1.07,2.64-1.07c1.16,0,2.11,.45,2.86,1.35s1.12,2.38,1.12,4.43-.39,3.6-1.16,4.53-1.79,1.39-3.03,1.39c-.9,0-1.62-.24-2.17-.71s-.91-1.19-1.06-2.14Zm4.97-4.8c0-.71-.16-1.26-.49-1.65s-.7-.59-1.13-.59-.74,.16-1.01,.48-.4,.84-.4,1.57,.15,1.28,.44,1.63,.66,.52,1.09,.52,.78-.17,1.07-.5,.43-.82,.43-1.47Z" fill="#20272d"/><path d="M548.64,40.1l2.84-11.84h1.65l-2.87,11.84h-1.62Z" fill="#20272d"/><path d="M554,36.86l2.12-.26c.07,.54,.25,.96,.55,1.24s.66,.43,1.08,.43c.45,0,.83-.17,1.14-.52s.46-.81,.46-1.39c0-.55-.15-.99-.45-1.31s-.66-.48-1.09-.48c-.28,0-.62,.05-1.01,.16l.24-1.79c.59,.02,1.05-.11,1.36-.39s.47-.64,.47-1.09c0-.39-.11-.69-.34-.92s-.53-.34-.91-.34-.7,.13-.96,.39-.43,.64-.48,1.14l-2.02-.34c.14-.69,.35-1.25,.64-1.66s.68-.74,1.19-.98,1.08-.36,1.71-.36c1.08,0,1.94,.34,2.59,1.03,.54,.56,.8,1.2,.8,1.91,0,1-.55,1.81-1.65,2.41,.66,.14,1.18,.46,1.57,.95s.59,1.08,.59,1.77c0,1-.37,1.86-1.1,2.57s-1.65,1.06-2.74,1.06c-1.04,0-1.9-.3-2.58-.89s-1.08-1.38-1.19-2.34Z" fill="#20272d"/><path d="M563.27,30.64v-2.04h7.51v1.59c-.62,.61-1.25,1.48-1.89,2.62s-1.13,2.35-1.46,3.64-.5,2.43-.5,3.44h-2.12c.04-1.58,.36-3.2,.98-4.84s1.44-3.12,2.47-4.41h-4.99Z" fill="#20272d"/></g></g><g id="Group-4"><rect id="Rectangle-Copy-17-8" x="206" y="224.9" width="242" height="33" fill="#2074b6"/><g isolation="isolate"><path d="M301.62,243.18l2.25-.22c.14,.75,.41,1.31,.82,1.66s.97,.53,1.68,.53c.74,0,1.31-.16,1.68-.47,.38-.32,.57-.68,.57-1.11,0-.27-.08-.5-.24-.69-.16-.19-.44-.36-.83-.5-.27-.09-.89-.26-1.85-.5-1.24-.31-2.11-.68-2.61-1.13-.7-.63-1.05-1.4-1.05-2.3,0-.58,.17-1.13,.5-1.64,.33-.51,.81-.89,1.43-1.16,.62-.27,1.37-.4,2.25-.4,1.44,0,2.52,.32,3.25,.95s1.11,1.47,1.14,2.52l-2.31,.1c-.1-.59-.31-1.01-.64-1.27-.33-.26-.81-.39-1.46-.39s-1.2,.14-1.58,.41c-.25,.18-.37,.41-.37,.71,0,.27,.11,.5,.34,.7,.29,.25,1,.5,2.12,.77s1.96,.54,2.5,.82,.96,.67,1.27,1.16,.46,1.1,.46,1.82c0,.66-.18,1.27-.55,1.84-.36,.57-.88,1-1.55,1.28-.67,.28-1.5,.42-2.49,.42-1.45,0-2.56-.33-3.34-1-.78-.67-1.24-1.64-1.39-2.93Z" fill="#fff"/><path d="M312.6,243.86l2.12-.26c.07,.54,.25,.96,.55,1.24s.66,.43,1.08,.43c.45,0,.83-.17,1.14-.52,.31-.34,.46-.81,.46-1.39,0-.55-.15-.99-.45-1.31s-.66-.48-1.09-.48c-.28,0-.62,.05-1.01,.16l.24-1.79c.59,.02,1.05-.11,1.36-.39s.47-.64,.47-1.09c0-.39-.11-.69-.34-.92-.23-.23-.53-.34-.91-.34s-.7,.13-.96,.39-.43,.64-.48,1.14l-2.02-.34c.14-.69,.35-1.25,.64-1.66,.28-.41,.68-.74,1.19-.98s1.08-.36,1.71-.36c1.08,0,1.94,.34,2.59,1.03,.54,.56,.8,1.2,.8,1.91,0,1-.55,1.81-1.65,2.41,.66,.14,1.18,.46,1.57,.95,.39,.49,.59,1.08,.59,1.77,0,1-.37,1.86-1.1,2.57s-1.65,1.06-2.74,1.06c-1.04,0-1.9-.3-2.58-.89-.68-.6-1.08-1.38-1.19-2.34Z" fill="#fff"/><path d="M329.28,244.86v2.04h-7.7c.08-.77,.33-1.5,.75-2.19,.42-.69,1.24-1.61,2.47-2.75,.99-.92,1.6-1.55,1.82-1.88,.3-.45,.45-.9,.45-1.34,0-.49-.13-.87-.39-1.13-.26-.26-.63-.39-1.09-.39s-.82,.14-1.09,.41c-.27,.28-.43,.73-.47,1.38l-2.19-.22c.13-1.21,.54-2.08,1.23-2.6s1.55-.79,2.58-.79c1.13,0,2.02,.3,2.66,.91,.65,.61,.97,1.37,.97,2.27,0,.52-.09,1.01-.28,1.47-.19,.47-.48,.95-.88,1.46-.27,.34-.75,.83-1.44,1.46-.69,.64-1.13,1.06-1.32,1.27-.19,.21-.33,.41-.45,.61h4.36Z" fill="#fff"/><path d="M331.57,246.9v-11.45h2.31v5.09l4.67-5.09h3.11l-4.31,4.46,4.55,6.99h-2.99l-3.15-5.38-1.88,1.91v3.46h-2.31Z" fill="#fff"/><path d="M348.51,246.9h-2.2v-8.27c-.8,.75-1.75,1.3-2.84,1.66v-1.99c.57-.19,1.2-.54,1.87-1.07s1.13-1.13,1.38-1.83h1.78v11.5Z" fill="#fff"/><path d="M356.39,246.9v-2.3h-4.69v-1.92l4.97-7.27h1.84v7.27h1.42v1.93h-1.42v2.3h-2.12Zm0-4.23v-3.91l-2.63,3.91h2.63Z" fill="#fff"/></g></g><g id="Group-3"><rect id="Rectangle-Copy-18" x="266" y="176.9" width="264" height="33" fill="#2074b6"/><g isolation="isolate"><path d="M368.99,195.18l2.25-.22c.13,.75,.41,1.31,.82,1.66s.97,.53,1.68,.53c.74,0,1.31-.16,1.68-.47,.38-.32,.57-.68,.57-1.11,0-.27-.08-.5-.24-.69-.16-.19-.44-.36-.83-.5-.27-.09-.89-.26-1.85-.5-1.24-.31-2.11-.68-2.61-1.13-.7-.63-1.05-1.4-1.05-2.3,0-.58,.17-1.13,.5-1.64,.33-.51,.81-.89,1.43-1.16,.62-.27,1.37-.4,2.25-.4,1.44,0,2.52,.32,3.25,.95s1.11,1.47,1.14,2.52l-2.31,.1c-.1-.59-.31-1.01-.64-1.27-.33-.26-.81-.39-1.46-.39s-1.2,.14-1.58,.41c-.25,.18-.37,.41-.37,.71,0,.27,.11,.5,.34,.7,.29,.25,1,.5,2.12,.77s1.96,.54,2.5,.82,.96,.67,1.27,1.16,.46,1.1,.46,1.82c0,.66-.18,1.27-.55,1.84-.37,.57-.88,1-1.55,1.28-.67,.28-1.5,.42-2.49,.42-1.45,0-2.56-.33-3.34-1-.78-.67-1.24-1.64-1.39-2.93Z" fill="#fff"/><path d="M379.98,195.86l2.12-.26c.07,.54,.25,.96,.55,1.24s.66,.43,1.08,.43c.45,0,.83-.17,1.14-.52,.31-.34,.46-.81,.46-1.39,0-.55-.15-.99-.45-1.31s-.66-.48-1.09-.48c-.28,0-.62,.05-1.01,.16l.24-1.79c.59,.02,1.05-.11,1.36-.39s.47-.64,.47-1.09c0-.39-.12-.69-.34-.92-.23-.23-.53-.34-.91-.34s-.7,.13-.96,.39-.43,.64-.48,1.14l-2.02-.34c.14-.69,.35-1.25,.64-1.66,.28-.41,.68-.74,1.19-.98s1.08-.36,1.71-.36c1.08,0,1.94,.34,2.59,1.03,.54,.56,.8,1.2,.8,1.91,0,1-.55,1.81-1.65,2.41,.66,.14,1.18,.46,1.57,.95,.39,.49,.59,1.08,.59,1.77,0,1-.37,1.86-1.1,2.57s-1.65,1.06-2.74,1.06c-1.04,0-1.9-.3-2.58-.89-.68-.6-1.08-1.38-1.19-2.34Z" fill="#fff"/><path d="M396.65,196.86v2.04h-7.7c.08-.77,.33-1.5,.75-2.19,.42-.69,1.24-1.61,2.47-2.75,.99-.92,1.6-1.55,1.82-1.88,.3-.45,.45-.9,.45-1.34,0-.49-.13-.87-.39-1.13-.26-.26-.63-.39-1.09-.39s-.82,.14-1.09,.41c-.27,.28-.43,.73-.47,1.38l-2.19-.22c.13-1.21,.54-2.08,1.23-2.6s1.55-.79,2.58-.79c1.13,0,2.02,.3,2.66,.91,.65,.61,.97,1.37,.97,2.27,0,.52-.09,1.01-.28,1.47-.19,.47-.48,.95-.88,1.46-.27,.34-.75,.83-1.44,1.46-.69,.64-1.13,1.06-1.32,1.27-.19,.21-.33,.41-.45,.61h4.36Z" fill="#fff"/><path d="M398.94,198.9v-11.45h2.31v5.09l4.67-5.09h3.11l-4.31,4.46,4.55,6.99h-2.99l-3.15-5.38-1.88,1.91v3.46h-2.31Z" fill="#fff"/><path d="M410.19,195.86l2.12-.26c.07,.54,.25,.96,.55,1.24s.66,.43,1.08,.43c.45,0,.83-.17,1.14-.52s.46-.81,.46-1.39c0-.55-.15-.99-.45-1.31s-.66-.48-1.09-.48c-.28,0-.62,.05-1.01,.16l.24-1.79c.59,.02,1.05-.11,1.36-.39s.47-.64,.47-1.09c0-.39-.11-.69-.34-.92s-.53-.34-.91-.34-.7,.13-.96,.39-.43,.64-.48,1.14l-2.02-.34c.14-.69,.35-1.25,.64-1.66s.68-.74,1.19-.98,1.08-.36,1.71-.36c1.08,0,1.94,.34,2.59,1.03,.54,.56,.8,1.2,.8,1.91,0,1-.55,1.81-1.65,2.41,.66,.14,1.18,.46,1.57,.95s.59,1.08,.59,1.77c0,1-.37,1.86-1.1,2.57s-1.65,1.06-2.74,1.06c-1.04,0-1.9-.3-2.58-.89s-1.08-1.38-1.19-2.34Z" fill="#fff"/><path d="M425.07,198.9h-2.2v-8.27c-.8,.75-1.75,1.3-2.84,1.66v-1.99c.57-.19,1.2-.54,1.87-1.07s1.13-1.13,1.38-1.83h1.78v11.5Z" fill="#fff"/></g></g><polygon points="700 309.4 111.5 309.4 111.5 9.9 112.5 9.9 112.5 308.4 700 308.4 700 309.4" fill="#333f48"/><g isolation="isolate"><path d="M152.97,321.9h-1.05v-6.72c-.25,.24-.59,.48-1,.73s-.78,.42-1.11,.54v-1.02c.59-.28,1.11-.61,1.55-1.01s.75-.78,.94-1.15h.68v8.62Z" fill="#333f48"/><path d="M161.21,320.89v1.01h-5.68c0-.25,.03-.5,.12-.73,.14-.39,.38-.77,.69-1.14s.78-.81,1.38-1.3c.93-.77,1.56-1.37,1.89-1.82s.49-.87,.49-1.27c0-.42-.15-.77-.45-1.06s-.69-.43-1.17-.43c-.51,0-.91,.15-1.22,.46s-.46,.73-.46,1.27l-1.08-.11c.07-.81,.35-1.42,.84-1.85s1.13-.64,1.95-.64,1.48,.23,1.96,.69,.72,1.02,.72,1.7c0,.34-.07,.68-.21,1.01s-.37,.68-.7,1.05-.87,.87-1.63,1.51c-.63,.53-1.04,.89-1.22,1.08s-.33,.38-.45,.57h4.21Z" fill="#333f48"/><path d="M163.97,317.24c-.44-.16-.76-.39-.97-.69s-.32-.65-.32-1.07c0-.62,.22-1.15,.67-1.58s1.05-.64,1.79-.64,1.35,.22,1.81,.65,.69,.97,.69,1.59c0,.4-.1,.75-.31,1.04s-.53,.52-.95,.68c.53,.17,.93,.45,1.2,.83s.41,.84,.41,1.37c0,.73-.26,1.35-.78,1.85s-1.2,.75-2.05,.75-1.53-.25-2.05-.75-.78-1.13-.78-1.88c0-.56,.14-1.03,.42-1.4s.69-.63,1.21-.77Zm-.55,2.18c0,.3,.07,.59,.21,.87s.35,.5,.64,.65,.58,.23,.91,.23c.5,0,.92-.16,1.25-.49s.49-.74,.49-1.24-.17-.93-.51-1.26-.76-.5-1.27-.5-.91,.16-1.23,.49-.49,.74-.49,1.23Zm.34-3.97c0,.41,.13,.74,.39,1s.6,.39,1.02,.39,.74-.13,1-.38,.39-.57,.39-.94-.13-.71-.4-.98-.6-.4-1-.4-.74,.13-1,.39-.4,.57-.4,.93Z" fill="#333f48"/><path d="M169.4,321.9v-8.59h1.14v4.26l4.27-4.26h1.54l-3.6,3.48,3.76,5.11h-1.5l-3.06-4.35-1.41,1.37v2.98h-1.14Z" fill="#333f48"/><path d="M177.4,321.9v-8.59h3.22c.66,0,1.18,.09,1.58,.26s.71,.44,.93,.8,.34,.74,.34,1.13c0,.37-.1,.71-.3,1.04s-.5,.59-.9,.79c.52,.15,.92,.41,1.2,.78s.42,.8,.42,1.3c0,.4-.08,.78-.25,1.12s-.38,.61-.63,.8-.56,.33-.94,.42-.84,.14-1.39,.14h-3.28Zm1.14-4.98h1.86c.5,0,.87-.03,1.08-.1,.29-.09,.51-.23,.65-.43s.22-.45,.22-.75c0-.29-.07-.54-.21-.75s-.33-.37-.59-.45-.69-.12-1.31-.12h-1.72v2.6Zm0,3.97h2.14c.37,0,.62-.01,.77-.04,.26-.05,.48-.12,.66-.23s.32-.27,.43-.48,.17-.45,.17-.72c0-.32-.08-.6-.25-.83s-.39-.4-.68-.5-.71-.14-1.26-.14h-1.99v2.95Z" fill="#333f48"/></g><g isolation="isolate"><path d="M9.89,228.72c-.66-.21-1.22-.5-1.68-.87l.6-1.32c.48,.36,.98,.63,1.5,.8s1.1,.25,1.71,.25c.68,0,1.21-.12,1.58-.36s.55-.57,.55-1c0-.37-.17-.66-.51-.85-.34-.2-.91-.38-1.7-.56-.82-.18-1.49-.38-2-.62s-.9-.53-1.16-.9c-.26-.36-.39-.83-.39-1.39s.16-1.1,.48-1.55,.77-.81,1.34-1.07c.58-.26,1.25-.38,2-.38,.69,0,1.35,.11,1.97,.32,.62,.21,1.14,.5,1.54,.86l-.6,1.32c-.88-.7-1.85-1.05-2.91-1.05-.63,0-1.14,.13-1.5,.38s-.55,.61-.55,1.07c0,.38,.16,.68,.49,.88s.88,.4,1.67,.57c.83,.19,1.5,.39,2.02,.62,.52,.23,.91,.52,1.19,.88,.28,.35,.41,.8,.41,1.34,0,.59-.16,1.1-.47,1.55-.31,.44-.77,.78-1.36,1.02-.59,.24-1.29,.36-2.09,.36-.76,0-1.47-.1-2.13-.31Z" fill="#222426"/><path d="M24.24,224.68c.31,.42,.47,.93,.47,1.55,0,.86-.32,1.54-.95,2.04s-1.49,.75-2.57,.75c-.66,0-1.3-.1-1.91-.31s-1.12-.49-1.52-.84l.6-1.32c.86,.68,1.78,1.02,2.76,1.02,.62,0,1.09-.12,1.4-.37,.31-.25,.46-.62,.46-1.13s-.16-.86-.47-1.1c-.31-.24-.8-.36-1.45-.36h-1.3v-1.43h1.06c1.28,0,1.92-.48,1.92-1.44,0-.45-.14-.79-.41-1.04-.28-.24-.67-.36-1.17-.36-.44,0-.88,.09-1.34,.26s-.89,.43-1.32,.76l-.6-1.32c.39-.35,.89-.63,1.5-.84,.61-.21,1.23-.31,1.87-.31,.97,0,1.75,.24,2.32,.71,.58,.47,.87,1.11,.87,1.91,0,.55-.15,1.03-.43,1.43-.28,.41-.66,.7-1.14,.88,.58,.15,1.02,.43,1.34,.85Z" fill="#222426"/><path d="M33.88,227.45v1.46h-6.64v-1.33l3.36-3.61c.39-.43,.68-.82,.86-1.18,.18-.36,.27-.72,.27-1.07,0-.45-.13-.79-.39-1.01s-.63-.34-1.13-.34c-.89,0-1.78,.34-2.67,1.02l-.6-1.32c.39-.35,.89-.62,1.5-.83s1.23-.32,1.84-.32c.99,0,1.77,.24,2.35,.73s.87,1.14,.87,1.96c0,.57-.12,1.1-.36,1.6-.24,.5-.65,1.06-1.23,1.67l-2.42,2.58h4.38Z" fill="#222426"/><path d="M44.93,228.9h-2.2l-4.58-4.59v4.59h-1.81v-9.87h1.81v4.41l4.4-4.41h2.16l-4.77,4.75,5,5.12Z" fill="#222426"/><path d="M50.71,227.45h2.14v1.46h-6.09v-1.46h2.14v-6.36l-1.69,1.02-.71-1.32,2.93-1.76h1.29v8.41Z" fill="#222426"/></g><g isolation="isolate"><path d="M17.21,240.03h.94v9.87h-1.05v-7.64s-3.19,6.08-3.19,6.08h-.81l-3.22-6.02v7.59s-1.05,0-1.05,0v-9.87h.95l3.74,7.15,3.7-7.15Z" fill="#222426"/><path d="M27.92,246.81v.95h-1.48v2.14h-1.13v-2.14h-4.56v-.87l4.76-6.86h.94v6.78h1.48Zm-5.99,0h3.37v-4.86l-3.37,4.86Z" fill="#222426"/><path d="M36.68,245.48v.88h-2.98v2.97h-.87v-2.97h-2.98v-.88h2.98v-2.98h.87v2.98h2.98Z" fill="#222426"/><path d="M47.72,240.03h.94v9.87h-1.05v-7.64s-3.19,6.08-3.19,6.08h-.81l-3.22-6.02v7.59s-1.05,0-1.05,0v-9.87h.95l3.74,7.15,3.7-7.15Z" fill="#222426"/><path d="M52.15,248.73c-.59-.86-.88-2.11-.88-3.75s.29-2.91,.88-3.77c.59-.86,1.45-1.29,2.58-1.29s1.99,.43,2.58,1.28c.59,.85,.88,2.11,.88,3.76s-.29,2.91-.88,3.77-1.45,1.29-2.58,1.29-1.99-.43-2.58-1.29Zm4.31-.67c.37-.66,.56-1.69,.56-3.09s-.18-2.44-.55-3.09c-.37-.65-.95-.97-1.74-.97s-1.36,.33-1.74,.98c-.37,.65-.56,1.68-.56,3.08s.19,2.43,.56,3.09c.37,.66,.95,.99,1.74,.99s1.36-.33,1.74-.99Z" fill="#222426"/></g><g isolation="isolate"><path d="M9.89,37.72c-.66-.21-1.22-.5-1.68-.87l.6-1.32c.48,.36,.98,.63,1.5,.8s1.1,.25,1.71,.25c.68,0,1.21-.12,1.58-.36s.55-.57,.55-1c0-.37-.17-.66-.51-.85-.34-.2-.91-.38-1.7-.56-.82-.18-1.49-.38-2-.62s-.9-.53-1.16-.9c-.26-.36-.39-.83-.39-1.39s.16-1.1,.48-1.55,.77-.81,1.34-1.07c.58-.26,1.25-.38,2-.38,.69,0,1.35,.11,1.97,.32,.62,.21,1.14,.5,1.54,.86l-.6,1.32c-.88-.7-1.85-1.05-2.91-1.05-.63,0-1.14,.13-1.5,.38s-.55,.61-.55,1.07c0,.38,.16,.68,.49,.88s.88,.4,1.67,.57c.83,.19,1.5,.39,2.02,.62,.52,.23,.91,.52,1.19,.88,.28,.35,.41,.8,.41,1.34,0,.59-.16,1.1-.47,1.55-.31,.44-.77,.78-1.36,1.02-.59,.24-1.29,.36-2.09,.36-.76,0-1.47-.1-2.13-.31Z" fill="#222426"/><path d="M24.24,33.68c.31,.42,.47,.93,.47,1.55,0,.86-.32,1.54-.95,2.04s-1.49,.75-2.57,.75c-.66,0-1.3-.1-1.91-.31s-1.12-.49-1.52-.84l.6-1.32c.86,.68,1.78,1.02,2.76,1.02,.62,0,1.09-.12,1.4-.37,.31-.25,.46-.62,.46-1.13s-.16-.86-.47-1.1c-.31-.24-.8-.36-1.45-.36h-1.3v-1.43h1.06c1.28,0,1.92-.48,1.92-1.44,0-.45-.14-.79-.41-1.04-.28-.24-.67-.36-1.17-.36-.44,0-.88,.09-1.34,.26s-.89,.43-1.32,.76l-.6-1.32c.39-.35,.89-.63,1.5-.84,.61-.21,1.23-.31,1.87-.31,.97,0,1.75,.24,2.32,.71,.58,.47,.87,1.11,.87,1.91,0,.55-.15,1.03-.43,1.43-.28,.41-.66,.7-1.14,.88,.58,.15,1.02,.43,1.34,.85Z" fill="#222426"/><path d="M33.88,36.45v1.46h-6.64v-1.33l3.36-3.61c.39-.43,.68-.82,.86-1.18,.18-.36,.27-.72,.27-1.07,0-.45-.13-.79-.39-1.01s-.63-.34-1.13-.34c-.89,0-1.78,.34-2.67,1.02l-.6-1.32c.39-.35,.89-.62,1.5-.83s1.23-.32,1.84-.32c.99,0,1.77,.24,2.35,.73s.87,1.14,.87,1.96c0,.57-.12,1.1-.36,1.6-.24,.5-.65,1.06-1.23,1.67l-2.42,2.58h4.38Z" fill="#222426"/><path d="M44.93,37.9h-2.2l-4.58-4.59v4.59h-1.81v-9.87h1.81v4.41l4.4-4.41h2.16l-4.77,4.75,5,5.12Z" fill="#222426"/><path d="M52.23,33.68c.31,.42,.47,.93,.47,1.55,0,.86-.32,1.54-.95,2.04s-1.49,.75-2.57,.75c-.66,0-1.3-.1-1.91-.31s-1.12-.49-1.52-.84l.6-1.32c.86,.68,1.78,1.02,2.76,1.02,.62,0,1.09-.12,1.4-.37,.31-.25,.46-.62,.46-1.13s-.16-.86-.47-1.1c-.31-.24-.8-.36-1.45-.36h-1.3v-1.43h1.06c1.28,0,1.92-.48,1.92-1.44,0-.45-.14-.79-.41-1.04-.28-.24-.67-.36-1.17-.36-.44,0-.88,.09-1.34,.26s-.89,.43-1.32,.76l-.6-1.32c.39-.35,.89-.63,1.5-.84,.61-.21,1.23-.31,1.87-.31,.97,0,1.75,.24,2.32,.71,.58,.47,.87,1.11,.87,1.91,0,.55-.15,1.03-.43,1.43-.28,.41-.66,.7-1.14,.88,.58,.15,1.02,.43,1.34,.85Z" fill="#222426"/></g><g isolation="isolate"><path d="M17.21,49.03h.94v9.87h-1.05v-7.64s-3.19,6.08-3.19,6.08h-.81l-3.22-6.02v7.59s-1.05,0-1.05,0v-9.87h.95l3.74,7.15,3.7-7.15Z" fill="#222426"/><path d="M20.96,49.03h6.52v.85l-4.62,9.02h-1.25l4.61-8.9h-5.26v-.97Z" fill="#222426"/></g><g isolation="isolate"><path d="M222.54,320.89v1.01h-5.68c0-.25,.03-.5,.12-.73,.14-.39,.38-.77,.69-1.14s.78-.81,1.38-1.3c.93-.77,1.56-1.37,1.89-1.82s.49-.87,.49-1.27c0-.42-.15-.77-.45-1.06s-.69-.43-1.17-.43c-.51,0-.91,.15-1.22,.46s-.46,.73-.46,1.27l-1.08-.11c.07-.81,.35-1.42,.84-1.85s1.13-.64,1.95-.64,1.48,.23,1.96,.69,.72,1.02,.72,1.7c0,.34-.07,.68-.21,1.01s-.37,.68-.7,1.05-.87,.87-1.63,1.51c-.63,.53-1.04,.89-1.22,1.08s-.33,.38-.45,.57h4.21Z" fill="#333f48"/><path d="M223.67,319.65l1.11-.09c.08,.54,.27,.94,.57,1.22s.66,.41,1.08,.41c.51,0,.94-.19,1.29-.57s.53-.89,.53-1.52-.17-1.08-.51-1.42-.78-.52-1.33-.52c-.34,0-.65,.08-.92,.23s-.49,.35-.64,.6l-.99-.13,.83-4.41h4.27v1.01h-3.43l-.46,2.31c.52-.36,1.06-.54,1.62-.54,.75,0,1.38,.26,1.9,.78s.77,1.19,.77,2-.23,1.45-.68,2.02c-.55,.7-1.3,1.04-2.26,1.04-.78,0-1.42-.22-1.91-.66s-.78-1.02-.85-1.74Z" fill="#333f48"/><path d="M235.82,315.42l-1.05,.08c-.09-.41-.23-.71-.4-.9-.29-.3-.64-.45-1.05-.45-.34,0-.63,.09-.88,.28-.33,.24-.59,.6-.79,1.06s-.29,1.13-.3,1.99c.25-.39,.56-.67,.93-.86s.75-.28,1.15-.28c.7,0,1.3,.26,1.8,.78s.74,1.19,.74,2.01c0,.54-.12,1.04-.35,1.5s-.55,.82-.96,1.06-.87,.37-1.38,.37c-.88,0-1.6-.32-2.15-.97s-.83-1.71-.83-3.2c0-1.66,.31-2.87,.92-3.62,.54-.66,1.26-.98,2.16-.98,.68,0,1.23,.19,1.66,.57s.69,.9,.78,1.57Zm-4.31,3.7c0,.36,.08,.71,.23,1.04s.37,.58,.65,.76,.57,.26,.87,.26c.45,0,.83-.18,1.15-.54s.48-.85,.48-1.46-.16-1.06-.47-1.4-.71-.51-1.2-.51-.88,.17-1.21,.51-.5,.79-.5,1.34Z" fill="#333f48"/><path d="M237.4,321.9v-8.59h1.14v4.26l4.27-4.26h1.54l-3.6,3.48,3.76,5.11h-1.5l-3.06-4.35-1.41,1.37v2.98h-1.14Z" fill="#333f48"/><path d="M245.4,321.9v-8.59h3.22c.66,0,1.18,.09,1.58,.26s.71,.44,.93,.8,.34,.74,.34,1.13c0,.37-.1,.71-.3,1.04s-.5,.59-.9,.79c.52,.15,.92,.41,1.2,.78s.42,.8,.42,1.3c0,.4-.08,.78-.25,1.12s-.38,.61-.63,.8-.56,.33-.94,.42-.84,.14-1.39,.14h-3.28Zm1.14-4.98h1.86c.5,0,.87-.03,1.08-.1,.29-.09,.51-.23,.65-.43s.22-.45,.22-.75c0-.29-.07-.54-.21-.75s-.33-.37-.59-.45-.69-.12-1.31-.12h-1.72v2.6Zm0,3.97h2.14c.37,0,.62-.01,.77-.04,.26-.05,.48-.12,.66-.23s.32-.27,.43-.48,.17-.45,.17-.72c0-.32-.08-.6-.25-.83s-.39-.4-.68-.5-.71-.14-1.26-.14h-1.99v2.95Z" fill="#333f48"/></g><g isolation="isolate"><path d="M283,319.65l1.11-.09c.08,.54,.27,.94,.57,1.22s.66,.41,1.08,.41c.51,0,.94-.19,1.29-.57s.53-.89,.53-1.52-.17-1.08-.51-1.42-.78-.52-1.33-.52c-.34,0-.65,.08-.92,.23s-.49,.35-.64,.6l-.99-.13,.83-4.41h4.27v1.01h-3.43l-.46,2.31c.52-.36,1.06-.54,1.62-.54,.75,0,1.38,.26,1.9,.78s.77,1.19,.77,2-.23,1.45-.68,2.02c-.55,.7-1.3,1.04-2.26,1.04-.78,0-1.42-.22-1.91-.66s-.78-1.02-.85-1.74Z" fill="#333f48"/><path d="M293.64,321.9h-1.05v-6.72c-.25,.24-.59,.48-1,.73s-.78,.42-1.11,.54v-1.02c.59-.28,1.11-.61,1.55-1.01s.75-.78,.94-1.15h.68v8.62Z" fill="#333f48"/><path d="M301.89,320.89v1.01h-5.68c0-.25,.03-.5,.12-.73,.14-.39,.38-.77,.69-1.14s.78-.81,1.38-1.3c.93-.77,1.56-1.37,1.89-1.82s.49-.87,.49-1.27c0-.42-.15-.77-.45-1.06s-.69-.43-1.17-.43c-.51,0-.91,.15-1.22,.46s-.46,.73-.46,1.27l-1.08-.11c.07-.81,.35-1.42,.84-1.85s1.13-.64,1.95-.64,1.48,.23,1.96,.69,.72,1.02,.72,1.7c0,.34-.07,.68-.21,1.01s-.37,.68-.7,1.05-.87,.87-1.63,1.51c-.63,.53-1.04,.89-1.22,1.08s-.33,.38-.45,.57h4.21Z" fill="#333f48"/><path d="M303.4,321.9v-8.59h1.14v4.26l4.27-4.26h1.54l-3.6,3.48,3.76,5.11h-1.5l-3.06-4.35-1.41,1.37v2.98h-1.14Z" fill="#333f48"/><path d="M311.4,321.9v-8.59h3.22c.66,0,1.18,.09,1.58,.26s.71,.44,.93,.8,.34,.74,.34,1.13c0,.37-.1,.71-.3,1.04s-.5,.59-.9,.79c.52,.15,.92,.41,1.2,.78s.42,.8,.42,1.3c0,.4-.08,.78-.25,1.12s-.38,.61-.63,.8-.56,.33-.94,.42-.84,.14-1.39,.14h-3.28Zm1.14-4.98h1.86c.5,0,.87-.03,1.08-.1,.29-.09,.51-.23,.65-.43s.22-.45,.22-.75c0-.29-.07-.54-.21-.75s-.33-.37-.59-.45-.69-.12-1.31-.12h-1.72v2.6Zm0,3.97h2.14c.37,0,.62-.01,.77-.04,.26-.05,.48-.12,.66-.23s.32-.27,.43-.48,.17-.45,.17-.72c0-.32-.08-.6-.25-.83s-.39-.4-.68-.5-.71-.14-1.26-.14h-1.99v2.95Z" fill="#333f48"/></g><g isolation="isolate"><path d="M359.97,321.9h-1.05v-6.72c-.25,.24-.59,.48-1,.73s-.78,.42-1.11,.54v-1.02c.59-.28,1.11-.61,1.55-1.01s.75-.78,.94-1.15h.68v8.62Z" fill="#333f48"/><path d="M363.06,321.9v-8.59h1.71l2.03,6.08c.19,.57,.32,.99,.41,1.27,.1-.31,.25-.77,.46-1.38l2.06-5.98h1.53v8.59h-1.1v-7.19l-2.5,7.19h-1.03l-2.48-7.31v7.31h-1.1Z" fill="#333f48"/><path d="M373.05,321.9v-8.59h3.22c.66,0,1.18,.09,1.58,.26s.71,.44,.93,.8,.34,.74,.34,1.13c0,.37-.1,.71-.3,1.04s-.5,.59-.9,.79c.52,.15,.92,.41,1.2,.78s.42,.8,.42,1.3c0,.4-.08,.78-.25,1.12s-.38,.61-.63,.8-.56,.33-.94,.42-.84,.14-1.39,.14h-3.28Zm1.14-4.98h1.86c.5,0,.87-.03,1.08-.1,.29-.09,.51-.23,.65-.43s.22-.45,.22-.75c0-.29-.07-.54-.21-.75s-.33-.37-.59-.45-.69-.12-1.31-.12h-1.72v2.6Zm0,3.97h2.14c.37,0,.62-.01,.77-.04,.26-.05,.48-.12,.66-.23s.32-.27,.43-.48,.17-.45,.17-.72c0-.32-.08-.6-.25-.83s-.39-.4-.68-.5-.71-.14-1.26-.14h-1.99v2.95Z" fill="#333f48"/></g><g isolation="isolate"><path d="M431.54,320.89v1.01h-5.68c0-.25,.03-.5,.12-.73,.14-.39,.38-.77,.69-1.14s.78-.81,1.38-1.3c.93-.77,1.56-1.37,1.89-1.82s.49-.87,.49-1.27c0-.42-.15-.77-.45-1.06s-.69-.43-1.17-.43c-.51,0-.91,.15-1.22,.46s-.46,.73-.46,1.27l-1.08-.11c.07-.81,.35-1.42,.84-1.85s1.13-.64,1.95-.64,1.48,.23,1.96,.69,.72,1.02,.72,1.7c0,.34-.07,.68-.21,1.01s-.37,.68-.7,1.05-.87,.87-1.63,1.51c-.63,.53-1.04,.89-1.22,1.08s-.33,.38-.45,.57h4.21Z" fill="#333f48"/><path d="M433.06,321.9v-8.59h1.71l2.03,6.08c.19,.57,.32,.99,.41,1.27,.1-.31,.25-.77,.46-1.38l2.06-5.98h1.53v8.59h-1.1v-7.19l-2.5,7.19h-1.03l-2.48-7.31v7.31h-1.1Z" fill="#333f48"/><path d="M443.05,321.9v-8.59h3.22c.66,0,1.18,.09,1.58,.26s.71,.44,.93,.8,.34,.74,.34,1.13c0,.37-.1,.71-.3,1.04s-.5,.59-.9,.79c.52,.15,.92,.41,1.2,.78s.42,.8,.42,1.3c0,.4-.08,.78-.25,1.12s-.38,.61-.63,.8-.56,.33-.94,.42-.84,.14-1.39,.14h-3.28Zm1.14-4.98h1.86c.5,0,.87-.03,1.08-.1,.29-.09,.51-.23,.65-.43s.22-.45,.22-.75c0-.29-.07-.54-.21-.75s-.33-.37-.59-.45-.69-.12-1.31-.12h-1.72v2.6Zm0,3.97h2.14c.37,0,.62-.01,.77-.04,.26-.05,.48-.12,.66-.23s.32-.27,.43-.48,.17-.45,.17-.72c0-.32-.08-.6-.25-.83s-.39-.4-.68-.5-.71-.14-1.26-.14h-1.99v2.95Z" fill="#333f48"/></g><g isolation="isolate"><path d="M496.38,321.9v-2.06h-3.73v-.97l3.92-5.57h.86v5.57h1.16v.97h-1.16v2.06h-1.05Zm0-3.02v-3.87l-2.69,3.87h2.69Z" fill="#333f48"/><path d="M500.06,321.9v-8.59h1.71l2.03,6.08c.19,.57,.32,.99,.41,1.27,.1-.31,.25-.77,.46-1.38l2.06-5.98h1.53v8.59h-1.1v-7.19l-2.5,7.19h-1.03l-2.48-7.31v7.31h-1.1Z" fill="#333f48"/><path d="M510.05,321.9v-8.59h3.22c.66,0,1.18,.09,1.58,.26s.71,.44,.93,.8,.34,.74,.34,1.13c0,.37-.1,.71-.3,1.04s-.5,.59-.9,.79c.52,.15,.92,.41,1.2,.78s.42,.8,.42,1.3c0,.4-.08,.78-.25,1.12s-.38,.61-.63,.8-.56,.33-.94,.42-.84,.14-1.39,.14h-3.28Zm1.14-4.98h1.86c.5,0,.87-.03,1.08-.1,.29-.09,.51-.23,.65-.43s.22-.45,.22-.75c0-.29-.07-.54-.21-.75s-.33-.37-.59-.45-.69-.12-1.31-.12h-1.72v2.6Zm0,3.97h2.14c.37,0,.62-.01,.77-.04,.26-.05,.48-.12,.66-.23s.32-.27,.43-.48,.17-.45,.17-.72c0-.32-.08-.6-.25-.83s-.39-.4-.68-.5-.71-.14-1.26-.14h-1.99v2.95Z" fill="#333f48"/></g><g isolation="isolate"><path d="M561.47,315.42l-1.05,.08c-.09-.41-.23-.71-.4-.9-.29-.3-.64-.45-1.05-.45-.34,0-.63,.09-.88,.28-.33,.24-.59,.6-.79,1.06s-.29,1.13-.3,1.99c.25-.39,.56-.67,.93-.86s.75-.28,1.15-.28c.7,0,1.3,.26,1.8,.78s.74,1.19,.74,2.01c0,.54-.12,1.04-.35,1.5s-.55,.82-.96,1.06-.87,.37-1.38,.37c-.88,0-1.6-.32-2.15-.97s-.83-1.71-.83-3.2c0-1.66,.31-2.87,.92-3.62,.54-.66,1.26-.98,2.16-.98,.68,0,1.23,.19,1.66,.57s.69,.9,.78,1.57Zm-4.31,3.7c0,.36,.08,.71,.23,1.04s.37,.58,.65,.76,.57,.26,.87,.26c.45,0,.83-.18,1.15-.54s.48-.85,.48-1.46-.16-1.06-.47-1.4-.71-.51-1.2-.51-.88,.17-1.21,.51-.5,.79-.5,1.34Z" fill="#333f48"/><path d="M563.06,321.9v-8.59h1.71l2.03,6.08c.19,.57,.32,.99,.41,1.27,.1-.31,.25-.77,.46-1.38l2.06-5.98h1.53v8.59h-1.1v-7.19l-2.5,7.19h-1.03l-2.48-7.31v7.31h-1.1Z" fill="#333f48"/><path d="M573.05,321.9v-8.59h3.22c.66,0,1.18,.09,1.58,.26s.71,.44,.93,.8,.34,.74,.34,1.13c0,.37-.1,.71-.3,1.04s-.5,.59-.9,.79c.52,.15,.92,.41,1.2,.78s.42,.8,.42,1.3c0,.4-.08,.78-.25,1.12s-.38,.61-.63,.8-.56,.33-.94,.42-.84,.14-1.39,.14h-3.28Zm1.14-4.98h1.86c.5,0,.87-.03,1.08-.1,.29-.09,.51-.23,.65-.43s.22-.45,.22-.75c0-.29-.07-.54-.21-.75s-.33-.37-.59-.45-.69-.12-1.31-.12h-1.72v2.6Zm0,3.97h2.14c.37,0,.62-.01,.77-.04,.26-.05,.48-.12,.66-.23s.32-.27,.43-.48,.17-.45,.17-.72c0-.32-.08-.6-.25-.83s-.39-.4-.68-.5-.71-.14-1.26-.14h-1.99v2.95Z" fill="#333f48"/></g><g isolation="isolate"><path d="M627.62,317.24c-.44-.16-.76-.39-.97-.69s-.32-.65-.32-1.07c0-.62,.22-1.15,.67-1.58s1.05-.64,1.79-.64,1.35,.22,1.81,.65,.69,.97,.69,1.59c0,.4-.1,.75-.31,1.04s-.53,.52-.95,.68c.53,.17,.93,.45,1.2,.83s.41,.84,.41,1.37c0,.73-.26,1.35-.78,1.85s-1.2,.75-2.05,.75-1.53-.25-2.05-.75-.78-1.13-.78-1.88c0-.56,.14-1.03,.42-1.4s.69-.63,1.21-.77Zm-.55,2.18c0,.3,.07,.59,.21,.87s.35,.5,.64,.65,.58,.23,.91,.23c.5,0,.92-.16,1.25-.49s.49-.74,.49-1.24-.17-.93-.51-1.26-.76-.5-1.27-.5-.91,.16-1.23,.49-.49,.74-.49,1.23Zm.34-3.97c0,.41,.13,.74,.39,1s.6,.39,1.02,.39,.74-.13,1-.38,.39-.57,.39-.94-.13-.71-.4-.98-.6-.4-1-.4-.74,.13-1,.39-.4,.57-.4,.93Z" fill="#333f48"/><path d="M633.06,321.9v-8.59h1.71l2.03,6.08c.19,.57,.32,.99,.41,1.27,.1-.31,.25-.77,.46-1.38l2.06-5.98h1.53v8.59h-1.1v-7.19l-2.5,7.19h-1.03l-2.48-7.31v7.31h-1.1Z" fill="#333f48"/><path d="M643.05,321.9v-8.59h3.22c.66,0,1.18,.09,1.58,.26s.71,.44,.93,.8,.34,.74,.34,1.13c0,.37-.1,.71-.3,1.04s-.5,.59-.9,.79c.52,.15,.92,.41,1.2,.78s.42,.8,.42,1.3c0,.4-.08,.78-.25,1.12s-.38,.61-.63,.8-.56,.33-.94,.42-.84,.14-1.39,.14h-3.28Zm1.14-4.98h1.86c.5,0,.87-.03,1.08-.1,.29-.09,.51-.23,.65-.43s.22-.45,.22-.75c0-.29-.07-.54-.21-.75s-.33-.37-.59-.45-.69-.12-1.31-.12h-1.72v2.6Zm0,3.97h2.14c.37,0,.62-.01,.77-.04,.26-.05,.48-.12,.66-.23s.32-.27,.43-.48,.17-.45,.17-.72c0-.32-.08-.6-.25-.83s-.39-.4-.68-.5-.71-.14-1.26-.14h-1.99v2.95Z" fill="#333f48"/></g><g isolation="isolate"><path d="M119.96,30.9v-8.59h1.14v3.53h4.46v-3.53h1.14v8.59h-1.14v-4.05h-4.46v4.05h-1.14Z" fill="#333f48"/><path d="M128.21,28.14l1.07-.09c.05,.43,.17,.78,.35,1.06s.47,.5,.86,.67,.83,.25,1.32,.25c.43,0,.82-.06,1.15-.19s.58-.31,.74-.53,.24-.47,.24-.74-.08-.5-.23-.71-.41-.37-.77-.51c-.23-.09-.74-.23-1.53-.42s-1.34-.37-1.66-.54c-.41-.21-.72-.48-.92-.8s-.3-.67-.3-1.07c0-.43,.12-.84,.37-1.22s.61-.66,1.08-.86,1-.29,1.58-.29c.64,0,1.2,.1,1.68,.31s.86,.51,1.12,.91,.4,.85,.42,1.35l-1.09,.08c-.06-.54-.26-.95-.59-1.23s-.84-.42-1.5-.42-1.19,.13-1.5,.38-.47,.56-.47,.91c0,.31,.11,.56,.33,.76,.22,.2,.79,.4,1.71,.61s1.56,.39,1.9,.55c.5,.23,.87,.52,1.11,.88s.36,.76,.36,1.22-.13,.89-.39,1.29-.64,.72-1.13,.94-1.04,.34-1.66,.34c-.78,0-1.43-.11-1.95-.34s-.94-.57-1.24-1.02-.46-.97-.47-1.54Z" fill="#333f48"/><path d="M136.62,30.9v-8.59h6.21v1.01h-5.07v2.63h4.75v1.01h-4.75v2.92h5.27v1.01h-6.41Z" fill="#333f48"/><path d="M144.76,25.88v-1.2h1.2v1.2h-1.2Zm0,5.02v-1.2h1.2v1.2h-1.2Z" fill="#333f48"/><path d="M149.66,30.9l3.3-8.59h1.22l3.52,8.59h-1.29l-1-2.6h-3.59l-.94,2.6h-1.21Zm2.48-3.53h2.91l-.9-2.38c-.27-.72-.48-1.32-.61-1.78-.11,.55-.26,1.1-.46,1.64l-.94,2.52Z" fill="#333f48"/><path d="M158.63,30.9v-8.59h6.21v1.01h-5.07v2.63h4.75v1.01h-4.75v2.92h5.27v1.01h-6.41Z" fill="#333f48"/><path d="M166.23,28.14l1.07-.09c.05,.43,.17,.78,.35,1.06s.47,.5,.86,.67,.83,.25,1.32,.25c.43,0,.82-.06,1.15-.19s.58-.31,.74-.53,.24-.47,.24-.74-.08-.5-.23-.71-.41-.37-.77-.51c-.23-.09-.74-.23-1.53-.42s-1.34-.37-1.66-.54c-.41-.21-.72-.48-.92-.8s-.3-.67-.3-1.07c0-.43,.12-.84,.37-1.22s.61-.66,1.08-.86,1-.29,1.58-.29c.64,0,1.2,.1,1.68,.31s.86,.51,1.12,.91,.4,.85,.42,1.35l-1.09,.08c-.06-.54-.26-.95-.59-1.23s-.84-.42-1.5-.42-1.19,.13-1.5,.38-.47,.56-.47,.91c0,.31,.11,.56,.33,.76,.22,.2,.79,.4,1.71,.61s1.56,.39,1.9,.55c.5,.23,.87,.52,1.11,.88s.36,.76,.36,1.22-.13,.89-.39,1.29-.64,.72-1.13,.94-1.04,.34-1.66,.34c-.78,0-1.43-.11-1.95-.34s-.94-.57-1.24-1.02-.46-.97-.47-1.54Z" fill="#333f48"/><path d="M174.07,28.32v-1.06h3.24v1.06h-3.24Z" fill="#333f48"/><path d="M182.16,30.9h-1.05v-6.72c-.25,.24-.59,.48-1,.73s-.78,.42-1.11,.54v-1.02c.59-.28,1.11-.61,1.55-1.01s.75-.78,.94-1.15h.68v8.62Z" fill="#333f48"/><path d="M190.4,29.89v1.01h-5.68c0-.25,.03-.5,.12-.73,.14-.39,.38-.77,.69-1.14s.78-.81,1.38-1.3c.93-.77,1.56-1.37,1.89-1.82s.49-.87,.49-1.27c0-.42-.15-.77-.45-1.06s-.69-.43-1.17-.43c-.51,0-.91,.15-1.22,.46s-.46,.73-.46,1.27l-1.08-.11c.07-.81,.35-1.42,.84-1.85s1.13-.64,1.95-.64,1.48,.23,1.96,.69,.72,1.02,.72,1.7c0,.34-.07,.68-.21,1.01s-.37,.68-.7,1.05-.87,.87-1.63,1.51c-.63,.53-1.04,.89-1.22,1.08s-.33,.38-.45,.57h4.21Z" fill="#333f48"/><path d="M193.16,26.24c-.44-.16-.76-.39-.97-.69s-.32-.65-.32-1.07c0-.62,.22-1.15,.67-1.58s1.05-.64,1.79-.64,1.35,.22,1.81,.65,.69,.97,.69,1.59c0,.4-.1,.75-.31,1.04s-.53,.52-.95,.68c.53,.17,.93,.45,1.2,.83s.41,.84,.41,1.37c0,.73-.26,1.35-.78,1.85s-1.2,.75-2.05,.75-1.53-.25-2.05-.75-.78-1.13-.78-1.88c0-.56,.14-1.03,.42-1.4s.69-.63,1.21-.77Zm-.55,2.18c0,.3,.07,.59,.21,.87s.35,.5,.64,.65,.58,.23,.91,.23c.5,0,.92-.16,1.25-.49s.49-.74,.49-1.24-.17-.93-.51-1.26-.76-.5-1.27-.5-.91,.16-1.23,.49-.49,.74-.49,1.23Zm.34-3.97c0,.41,.13,.74,.39,1s.6,.39,1.02,.39,.74-.13,1-.38,.39-.57,.39-.94-.13-.71-.4-.98-.6-.4-1-.4-.74,.13-1,.39-.4,.57-.4,.93Z" fill="#333f48"/><path d="M197.71,31.05l2.49-8.88h.84l-2.48,8.88h-.85Z" fill="#333f48"/><path d="M205.51,30.9h-1.05v-6.72c-.25,.24-.59,.48-1,.73s-.78,.42-1.11,.54v-1.02c.59-.28,1.11-.61,1.55-1.01s.75-.78,.94-1.15h.68v8.62Z" fill="#333f48"/><path d="M213.76,29.89v1.01h-5.68c0-.25,.03-.5,.12-.73,.14-.39,.38-.77,.69-1.14s.78-.81,1.38-1.3c.93-.77,1.56-1.37,1.89-1.82s.49-.87,.49-1.27c0-.42-.15-.77-.45-1.06s-.69-.43-1.17-.43c-.51,0-.91,.15-1.22,.46s-.46,.73-.46,1.27l-1.08-.11c.07-.81,.35-1.42,.84-1.85s1.13-.64,1.95-.64,1.48,.23,1.96,.69,.72,1.02,.72,1.7c0,.34-.07,.68-.21,1.01s-.37,.68-.7,1.05-.87,.87-1.63,1.51c-.63,.53-1.04,.89-1.22,1.08s-.33,.38-.45,.57h4.21Z" fill="#333f48"/><path d="M215.05,28.92l1.01-.09c.09,.48,.25,.82,.49,1.04s.55,.32,.93,.32c.32,0,.61-.07,.85-.22s.44-.35,.6-.59,.29-.58,.39-1,.16-.85,.16-1.29c0-.05,0-.12,0-.21-.21,.34-.5,.61-.86,.82s-.76,.31-1.19,.31c-.71,0-1.31-.26-1.8-.77s-.74-1.2-.74-2.04,.26-1.57,.77-2.1,1.16-.8,1.93-.8c.56,0,1.07,.15,1.53,.45s.81,.73,1.05,1.29,.36,1.36,.36,2.42-.12,1.97-.36,2.62-.59,1.15-1.06,1.49-1.02,.51-1.66,.51c-.67,0-1.22-.19-1.65-.56s-.68-.9-.77-1.57Zm4.32-3.79c0-.61-.16-1.09-.48-1.44s-.71-.53-1.16-.53-.88,.19-1.22,.57-.52,.88-.52,1.49c0,.55,.17,.99,.5,1.33s.74,.51,1.22,.51,.89-.17,1.2-.51,.47-.82,.47-1.42Z" fill="#333f48"/><path d="M221.06,31.05l2.49-8.88h.84l-2.48,8.88h-.85Z" fill="#333f48"/><path d="M230.44,29.89v1.01h-5.68c0-.25,.03-.5,.12-.73,.14-.39,.38-.77,.69-1.14s.78-.81,1.38-1.3c.93-.77,1.56-1.37,1.89-1.82s.49-.87,.49-1.27c0-.42-.15-.77-.45-1.06s-.69-.43-1.17-.43c-.51,0-.91,.15-1.22,.46s-.46,.73-.46,1.27l-1.08-.11c.07-.81,.35-1.42,.84-1.85s1.13-.64,1.95-.64,1.48,.23,1.96,.69,.72,1.02,.72,1.7c0,.34-.07,.68-.21,1.01s-.37,.68-.7,1.05-.87,.87-1.63,1.51c-.63,.53-1.04,.89-1.22,1.08s-.33,.38-.45,.57h4.21Z" fill="#333f48"/><path d="M231.57,28.65l1.11-.09c.08,.54,.27,.94,.57,1.22s.66,.41,1.08,.41c.51,0,.94-.19,1.29-.57s.53-.89,.53-1.52-.17-1.08-.51-1.42-.78-.52-1.33-.52c-.34,0-.65,.08-.92,.23s-.49,.35-.64,.6l-.99-.13,.83-4.41h4.27v1.01h-3.43l-.46,2.31c.52-.36,1.06-.54,1.62-.54,.75,0,1.38,.26,1.9,.78s.77,1.19,.77,2-.23,1.45-.68,2.02c-.55,.7-1.3,1.04-2.26,1.04-.78,0-1.42-.22-1.91-.66s-.78-1.02-.85-1.74Z" fill="#333f48"/><path d="M243.72,24.42l-1.05,.08c-.09-.41-.23-.71-.4-.9-.29-.3-.64-.45-1.05-.45-.34,0-.63,.09-.88,.28-.33,.24-.59,.6-.79,1.06s-.29,1.13-.3,1.99c.25-.39,.56-.67,.93-.86s.75-.28,1.15-.28c.7,0,1.3,.26,1.8,.78s.74,1.19,.74,2.01c0,.54-.12,1.04-.35,1.5s-.55,.82-.96,1.06-.87,.37-1.38,.37c-.88,0-1.6-.32-2.15-.97s-.83-1.71-.83-3.2c0-1.66,.31-2.87,.92-3.62,.54-.66,1.26-.98,2.16-.98,.68,0,1.23,.19,1.66,.57s.69,.9,.78,1.57Zm-4.31,3.7c0,.36,.08,.71,.23,1.04s.37,.58,.65,.76,.57,.26,.87,.26c.45,0,.83-.18,1.15-.54s.48-.85,.48-1.46-.16-1.06-.47-1.4-.71-.51-1.2-.51-.88,.17-1.21,.51-.5,.79-.5,1.34Z" fill="#333f48"/><path d="M245.49,30.9v-1.2h1.2v1.2c0,.44-.08,.8-.23,1.07s-.4,.48-.74,.63l-.29-.45c.22-.1,.39-.24,.49-.43s.16-.46,.18-.82h-.6Z" fill="#333f48"/><path d="M252.03,30.9v-8.59h3.81c.77,0,1.35,.08,1.75,.23s.72,.43,.96,.82,.36,.82,.36,1.29c0,.61-.2,1.12-.59,1.54s-1,.68-1.83,.8c.3,.14,.53,.29,.69,.43,.33,.3,.65,.69,.94,1.14l1.49,2.34h-1.43l-1.14-1.79c-.33-.52-.61-.91-.82-1.18s-.41-.46-.58-.57-.34-.19-.52-.23c-.13-.03-.34-.04-.63-.04h-1.32v3.81h-1.14Zm1.14-4.8h2.44c.52,0,.93-.05,1.22-.16s.52-.28,.67-.52,.23-.49,.23-.77c0-.41-.15-.74-.44-1s-.76-.39-1.4-.39h-2.72v2.84Z" fill="#333f48"/><path d="M260.29,28.14l1.07-.09c.05,.43,.17,.78,.35,1.06s.47,.5,.86,.67,.83,.25,1.32,.25c.43,0,.82-.06,1.15-.19s.58-.31,.74-.53,.24-.47,.24-.74-.08-.5-.23-.71-.41-.37-.77-.51c-.23-.09-.74-.23-1.53-.42s-1.34-.37-1.66-.54c-.41-.21-.72-.48-.92-.8s-.3-.67-.3-1.07c0-.43,.12-.84,.37-1.22s.61-.66,1.08-.86,1-.29,1.58-.29c.64,0,1.2,.1,1.68,.31s.86,.51,1.12,.91,.4,.85,.42,1.35l-1.09,.08c-.06-.54-.26-.95-.59-1.23s-.84-.42-1.5-.42-1.19,.13-1.5,.38-.47,.56-.47,.91c0,.31,.11,.56,.33,.76,.22,.2,.79,.4,1.71,.61s1.56,.39,1.9,.55c.5,.23,.87,.52,1.11,.88s.36,.76,.36,1.22-.13,.89-.39,1.29-.64,.72-1.13,.94-1.04,.34-1.66,.34c-.78,0-1.43-.11-1.95-.34s-.94-.57-1.24-1.02-.46-.97-.47-1.54Z" fill="#333f48"/><path d="M267.74,30.9l3.3-8.59h1.22l3.52,8.59h-1.29l-1-2.6h-3.59l-.94,2.6h-1.21Zm2.48-3.53h2.91l-.9-2.38c-.27-.72-.48-1.32-.61-1.78-.11,.55-.26,1.1-.46,1.64l-.94,2.52Z" fill="#333f48"/><path d="M276.83,30.9v-1.2h1.2v1.2c0,.44-.08,.8-.23,1.07s-.4,.48-.74,.63l-.29-.45c.22-.1,.39-.24,.49-.43s.16-.46,.18-.82h-.6Z" fill="#333f48"/><path d="M283.38,30.9v-8.59h6.21v1.01h-5.07v2.63h4.75v1.01h-4.75v2.92h5.27v1.01h-6.41Z" fill="#333f48"/><path d="M297.49,27.89l1.14,.29c-.24,.93-.67,1.65-1.29,2.14s-1.38,.74-2.27,.74-1.68-.19-2.26-.57-1.02-.92-1.32-1.64-.45-1.48-.45-2.3c0-.89,.17-1.67,.51-2.34s.83-1.17,1.46-1.52,1.33-.52,2.08-.52c.86,0,1.58,.22,2.17,.66s.99,1.05,1.22,1.85l-1.12,.26c-.2-.62-.49-1.08-.87-1.37s-.86-.43-1.43-.43c-.66,0-1.21,.16-1.66,.47s-.75,.74-.93,1.27-.27,1.08-.27,1.65c0,.73,.11,1.37,.32,1.91s.54,.95,.99,1.22,.94,.4,1.46,.4c.64,0,1.18-.18,1.62-.55s.74-.91,.9-1.63Z" fill="#333f48"/><path d="M306.15,27.89l1.14,.29c-.24,.93-.67,1.65-1.29,2.14s-1.38,.74-2.27,.74-1.68-.19-2.26-.57-1.02-.92-1.32-1.64-.45-1.48-.45-2.3c0-.89,.17-1.67,.51-2.34s.83-1.17,1.46-1.52,1.33-.52,2.08-.52c.86,0,1.58,.22,2.17,.66s.99,1.05,1.22,1.85l-1.12,.26c-.2-.62-.49-1.08-.87-1.37s-.86-.43-1.43-.43c-.66,0-1.21,.16-1.66,.47s-.75,.74-.93,1.27-.27,1.08-.27,1.65c0,.73,.11,1.37,.32,1.91s.54,.95,.99,1.22,.94,.4,1.46,.4c.64,0,1.18-.18,1.62-.55s.74-.91,.9-1.63Z" fill="#333f48"/></g><g isolation="isolate"><path d="M119.96,240.9v-8.59h1.14v3.53h4.46v-3.53h1.14v8.59h-1.14v-4.05h-4.46v4.05h-1.14Z" fill="#333f48"/><path d="M128.21,238.14l1.07-.09c.05,.43,.17,.78,.35,1.06s.47,.5,.86,.67,.83,.25,1.32,.25c.43,0,.82-.06,1.15-.19s.58-.31,.74-.53,.24-.47,.24-.74-.08-.5-.23-.71-.41-.37-.77-.51c-.23-.09-.74-.23-1.53-.42s-1.34-.37-1.66-.54c-.41-.21-.72-.48-.92-.8s-.3-.67-.3-1.07c0-.43,.12-.84,.37-1.22s.61-.66,1.08-.86,1-.29,1.58-.29c.64,0,1.2,.1,1.68,.31s.86,.51,1.12,.91,.4,.85,.42,1.35l-1.09,.08c-.06-.54-.26-.95-.59-1.23s-.84-.42-1.5-.42-1.19,.13-1.5,.38-.47,.56-.47,.91c0,.31,.11,.56,.33,.76,.22,.2,.79,.4,1.71,.61s1.56,.39,1.9,.55c.5,.23,.87,.52,1.11,.88s.36,.76,.36,1.22-.13,.89-.39,1.29-.64,.72-1.13,.94-1.04,.34-1.66,.34c-.78,0-1.43-.11-1.95-.34s-.94-.57-1.24-1.02-.46-.97-.47-1.54Z" fill="#333f48"/><path d="M136.62,240.9v-8.59h6.21v1.01h-5.07v2.63h4.75v1.01h-4.75v2.92h5.27v1.01h-6.41Z" fill="#333f48"/><path d="M144.76,235.88v-1.2h1.2v1.2h-1.2Zm0,5.02v-1.2h1.2v1.2h-1.2Z" fill="#333f48"/><path d="M149.66,240.9l3.3-8.59h1.22l3.52,8.59h-1.29l-1-2.6h-3.59l-.94,2.6h-1.21Zm2.48-3.53h2.91l-.9-2.38c-.27-.72-.48-1.32-.61-1.78-.11,.55-.26,1.1-.46,1.64l-.94,2.52Z" fill="#333f48"/><path d="M158.63,240.9v-8.59h6.21v1.01h-5.07v2.63h4.75v1.01h-4.75v2.92h5.27v1.01h-6.41Z" fill="#333f48"/><path d="M166.23,238.14l1.07-.09c.05,.43,.17,.78,.35,1.06s.47,.5,.86,.67,.83,.25,1.32,.25c.43,0,.82-.06,1.15-.19s.58-.31,.74-.53,.24-.47,.24-.74-.08-.5-.23-.71-.41-.37-.77-.51c-.23-.09-.74-.23-1.53-.42s-1.34-.37-1.66-.54c-.41-.21-.72-.48-.92-.8s-.3-.67-.3-1.07c0-.43,.12-.84,.37-1.22s.61-.66,1.08-.86,1-.29,1.58-.29c.64,0,1.2,.1,1.68,.31s.86,.51,1.12,.91,.4,.85,.42,1.35l-1.09,.08c-.06-.54-.26-.95-.59-1.23s-.84-.42-1.5-.42-1.19,.13-1.5,.38-.47,.56-.47,.91c0,.31,.11,.56,.33,.76,.22,.2,.79,.4,1.71,.61s1.56,.39,1.9,.55c.5,.23,.87,.52,1.11,.88s.36,.76,.36,1.22-.13,.89-.39,1.29-.64,.72-1.13,.94-1.04,.34-1.66,.34c-.78,0-1.43-.11-1.95-.34s-.94-.57-1.24-1.02-.46-.97-.47-1.54Z" fill="#333f48"/><path d="M174.07,238.32v-1.06h3.24v1.06h-3.24Z" fill="#333f48"/><path d="M182.16,240.9h-1.05v-6.72c-.25,.24-.59,.48-1,.73s-.78,.42-1.11,.54v-1.02c.59-.28,1.11-.61,1.55-1.01s.75-.78,.94-1.15h.68v8.62Z" fill="#333f48"/><path d="M190.4,239.89v1.01h-5.68c0-.25,.03-.5,.12-.73,.14-.39,.38-.77,.69-1.14s.78-.81,1.38-1.3c.93-.77,1.56-1.37,1.89-1.82s.49-.87,.49-1.27c0-.42-.15-.77-.45-1.06s-.69-.43-1.17-.43c-.51,0-.91,.15-1.22,.46s-.46,.73-.46,1.27l-1.08-.11c.07-.81,.35-1.42,.84-1.85s1.13-.64,1.95-.64,1.48,.23,1.96,.69,.72,1.02,.72,1.7c0,.34-.07,.68-.21,1.01s-.37,.68-.7,1.05-.87,.87-1.63,1.51c-.63,.53-1.04,.89-1.22,1.08s-.33,.38-.45,.57h4.21Z" fill="#333f48"/><path d="M193.16,236.24c-.44-.16-.76-.39-.97-.69s-.32-.65-.32-1.07c0-.62,.22-1.15,.67-1.58s1.05-.64,1.79-.64,1.35,.22,1.81,.65,.69,.97,.69,1.59c0,.4-.1,.75-.31,1.04s-.53,.52-.95,.68c.53,.17,.93,.45,1.2,.83s.41,.84,.41,1.37c0,.73-.26,1.35-.78,1.85s-1.2,.75-2.05,.75-1.53-.25-2.05-.75-.78-1.13-.78-1.88c0-.56,.14-1.03,.42-1.4s.69-.63,1.21-.77Zm-.55,2.18c0,.3,.07,.59,.21,.87s.35,.5,.64,.65,.58,.23,.91,.23c.5,0,.92-.16,1.25-.49s.49-.74,.49-1.24-.17-.93-.51-1.26-.76-.5-1.27-.5-.91,.16-1.23,.49-.49,.74-.49,1.23Zm.34-3.97c0,.41,.13,.74,.39,1s.6,.39,1.02,.39,.74-.13,1-.38,.39-.57,.39-.94-.13-.71-.4-.98-.6-.4-1-.4-.74,.13-1,.39-.4,.57-.4,.93Z" fill="#333f48"/></g><g isolation="isolate"><path d="M304.16,348.3v-9.87h6.61v1.43h-4.84v2.72h4.56v1.41h-4.56v2.88h4.84v1.43h-6.61Z" fill="#222426"/><path d="M321.27,338.43h1.41v9.87h-1.6v-6.52l-2.6,4.93h-1.2l-2.62-4.86v6.45s-1.58,0-1.58,0v-9.87h1.43l3.39,6.45,3.37-6.45Z" fill="#222426"/><path d="M332.87,344.08c.31,.42,.47,.93,.47,1.54,0,.84-.3,1.5-.9,1.97-.6,.48-1.43,.71-2.48,.71h-4.48v-9.87h4.34c1.03,0,1.83,.23,2.42,.68,.58,.45,.88,1.08,.88,1.9,0,.52-.14,.98-.41,1.36s-.66,.66-1.14,.84c.57,.16,1.01,.45,1.32,.87Zm-5.63-1.48h2.28c1.24,0,1.86-.46,1.86-1.39,0-.47-.15-.81-.46-1.04-.31-.22-.77-.34-1.4-.34h-2.28v2.76Zm3.95,3.96c.3-.23,.45-.6,.45-1.09s-.15-.86-.46-1.11c-.3-.24-.78-.36-1.42-.36h-2.52v2.91h2.52c.65,0,1.13-.12,1.43-.35Z" fill="#222426"/><path d="M335.67,348.3v-9.87h6.61v1.43h-4.84v2.72h4.56v1.41h-4.56v2.88h4.84v1.43h-6.61Z" fill="#222426"/><path d="M344.56,338.43h3.64c1.61,0,2.87,.43,3.76,1.29,.89,.86,1.34,2.07,1.34,3.63s-.45,2.77-1.34,3.64c-.89,.87-2.15,1.3-3.76,1.3h-3.64v-9.87Zm3.53,8.4c2.27,0,3.4-1.16,3.4-3.47s-1.13-3.46-3.4-3.46h-1.72v6.93h1.72Z" fill="#222426"/><path d="M355.76,338.43h3.64c1.61,0,2.87,.43,3.76,1.29,.89,.86,1.34,2.07,1.34,3.63s-.45,2.77-1.34,3.64c-.89,.87-2.14,1.3-3.76,1.3h-3.64v-9.87Zm3.53,8.4c2.27,0,3.4-1.16,3.4-3.47s-1.13-3.46-3.4-3.46h-1.72v6.93h1.72Z" fill="#222426"/><path d="M366.96,348.3v-9.87h6.61v1.43h-4.84v2.72h4.56v1.41h-4.56v2.88h4.84v1.43h-6.61Z" fill="#222426"/><path d="M375.85,338.43h3.64c1.61,0,2.87,.43,3.76,1.29,.89,.86,1.34,2.07,1.34,3.63s-.45,2.77-1.34,3.64c-.89,.87-2.14,1.3-3.76,1.3h-3.64v-9.87Zm3.53,8.4c2.27,0,3.4-1.16,3.4-3.47s-1.13-3.46-3.4-3.46h-1.72v6.93h1.72Z" fill="#222426"/><path d="M391.49,348.3v-9.87h6.47v1.44h-4.69v2.69h4.41v1.44h-4.41v4.3h-1.78Z" fill="#222426"/><path d="M400.06,348.3v-9.87h1.81v8.39h4.61v1.48h-6.41Z" fill="#222426"/><path d="M415.94,348.3l-.99-2.31h-4.8l-.99,2.31h-1.82l4.47-9.87h1.47l4.47,9.87h-1.79Zm-5.21-3.71h3.61l-1.81-4.2-1.81,4.2Z" fill="#222426"/><path d="M420.53,348.12c-.66-.21-1.22-.5-1.68-.87l.6-1.32c.48,.36,.98,.63,1.5,.8s1.1,.25,1.71,.25c.68,0,1.21-.12,1.58-.36,.37-.24,.55-.57,.55-1,0-.37-.17-.66-.51-.85-.34-.2-.91-.38-1.7-.56-.82-.18-1.49-.38-2-.62-.51-.23-.9-.53-1.16-.9-.26-.36-.39-.83-.39-1.39s.16-1.1,.48-1.55,.77-.81,1.34-1.07c.58-.26,1.25-.38,2-.38,.69,0,1.35,.11,1.97,.32s1.14,.5,1.54,.86l-.6,1.32c-.88-.7-1.85-1.05-2.91-1.05-.63,0-1.14,.13-1.5,.38-.37,.26-.55,.61-.55,1.07,0,.38,.16,.68,.49,.88,.33,.21,.88,.4,1.67,.57,.83,.19,1.5,.39,2.02,.62,.52,.23,.91,.52,1.19,.88,.28,.35,.41,.8,.41,1.34,0,.59-.16,1.1-.47,1.55s-.77,.78-1.36,1.02c-.59,.24-1.29,.36-2.09,.36-.76,0-1.46-.1-2.13-.31Z" fill="#222426"/><path d="M435.72,338.43h1.76v9.87h-1.76v-4.28h-5.05v4.28h-1.78v-9.87h1.78v4.13h5.05v-4.13Z" fill="#222426"/><path d="M452.91,338.43h1.41v9.87h-1.6v-6.52l-2.6,4.93h-1.2l-2.62-4.86v6.45s-1.58,0-1.58,0v-9.87h1.43l3.39,6.45,3.37-6.45Z" fill="#222426"/><path d="M457.11,348.3v-9.87h6.61v1.43h-4.84v2.72h4.56v1.41h-4.56v2.88h4.84v1.43h-6.61Z" fill="#222426"/><path d="M474.22,338.43h1.41v9.87h-1.6v-6.52l-2.6,4.93h-1.2l-2.62-4.86v6.45s-1.58,0-1.58,0v-9.87h1.43l3.39,6.45,3.37-6.45Z" fill="#222426"/><path d="M480.31,347.81c-.7-.41-1.25-1-1.63-1.76s-.57-1.66-.57-2.69,.19-1.92,.57-2.68,.92-1.35,1.63-1.76,1.54-.62,2.51-.62,1.79,.21,2.5,.62c.71,.41,1.25,1,1.62,1.76s.57,1.65,.57,2.68-.19,1.92-.57,2.69-.93,1.35-1.63,1.76c-.71,.41-1.53,.62-2.49,.62s-1.79-.21-2.5-.62Zm4.62-1.76c.51-.62,.76-1.52,.76-2.69s-.25-2.06-.76-2.68c-.51-.62-1.22-.93-2.12-.93s-1.63,.31-2.13,.93c-.51,.62-.76,1.51-.76,2.68s.25,2.06,.76,2.69,1.22,.94,2.13,.94,1.61-.31,2.12-.94Z" fill="#222426"/><path d="M498.24,348.3h-1.96l-1.69-3.15c-.16-.3-.36-.51-.59-.63-.23-.12-.53-.18-.88-.18h-1.37v3.96h-1.78v-9.87h4.37c1.12,0,1.97,.25,2.55,.75s.88,1.22,.88,2.16c0,.76-.21,1.38-.64,1.87-.42,.49-1.02,.81-1.8,.96,.52,.14,.94,.51,1.26,1.11l1.65,3.02Zm-2.66-5.73c.32-.26,.48-.65,.48-1.18s-.16-.94-.48-1.18c-.32-.25-.82-.37-1.5-.37h-2.35v3.12h2.35c.68,0,1.18-.13,1.5-.39Z" fill="#222426"/><path d="M508.43,338.43l-4,5.32v4.55h-1.81v-4.55l-3.99-5.32h2.03l2.86,3.88,2.87-3.88h2.04Z" fill="#222426"/></g><rect id="Rectangle-Copy" x="227.5" y="381.01" width="12" height="12" fill="#a6cdeb"/><g isolation="isolate"><path d="M249.48,392.9l4.4-11.45h1.63l4.69,11.45h-1.73l-1.34-3.47h-4.79l-1.26,3.47h-1.61Zm3.3-4.7h3.88l-1.2-3.17c-.36-.96-.64-1.75-.81-2.38-.15,.73-.35,1.46-.62,2.19l-1.26,3.36Z" fill="#333f48"/><path d="M260.89,389.22l1.43-.12c.07,.57,.23,1.04,.47,1.41,.25,.37,.63,.66,1.15,.89,.52,.23,1.11,.34,1.76,.34,.58,0,1.09-.09,1.53-.26,.44-.17,.77-.41,.99-.71,.22-.3,.32-.63,.32-.98s-.1-.67-.31-.94c-.21-.27-.55-.49-1.03-.68-.31-.12-.99-.31-2.04-.56-1.05-.25-1.79-.49-2.21-.71-.55-.29-.95-.64-1.22-1.07-.27-.42-.4-.9-.4-1.43,0-.58,.16-1.12,.49-1.62s.81-.88,1.44-1.14c.63-.26,1.33-.39,2.1-.39,.85,0,1.6,.14,2.25,.41s1.15,.68,1.5,1.21c.35,.53,.54,1.13,.56,1.8l-1.45,.11c-.08-.72-.34-1.27-.79-1.64-.45-.37-1.12-.55-2-.55s-1.58,.17-2,.5c-.42,.34-.63,.74-.63,1.21,0,.41,.15,.75,.45,1.02,.29,.27,1.05,.54,2.29,.82,1.23,.28,2.08,.52,2.54,.73,.67,.31,1.16,.7,1.48,1.17,.32,.47,.48,1.01,.48,1.63s-.17,1.18-.52,1.72c-.35,.54-.85,.96-1.5,1.26-.65,.3-1.39,.45-2.21,.45-1.04,0-1.91-.15-2.61-.45-.7-.3-1.25-.76-1.65-1.36s-.61-1.29-.63-2.06Z" fill="#333f48"/><path d="M272.34,392.9v-11.45h1.52v11.45h-1.52Z" fill="#333f48"/><path d="M276.46,392.9v-11.45h1.52v10.1h5.64v1.35h-7.16Z" fill="#333f48"/><path d="M289.27,392.9v-11.45h3.95c.89,0,1.57,.05,2.04,.16,.66,.15,1.22,.42,1.68,.82,.6,.51,1.06,1.16,1.36,1.96,.3,.79,.45,1.7,.45,2.72,0,.87-.1,1.64-.3,2.31s-.46,1.23-.78,1.67c-.32,.44-.67,.79-1.04,1.04-.38,.25-.83,.44-1.37,.57-.53,.13-1.15,.2-1.84,.2h-4.13Zm1.52-1.35h2.45c.75,0,1.35-.07,1.78-.21s.77-.34,1.03-.59c.36-.36,.64-.84,.84-1.45,.2-.61,.3-1.34,.3-2.21,0-1.2-.2-2.12-.59-2.76-.39-.64-.87-1.07-1.43-1.29-.41-.16-1.06-.23-1.96-.23h-2.41v8.75Z" fill="#333f48"/></g><rect id="Rectangle-Copy-9" x="111.5" y="381.01" width="12" height="12" fill="#2074b6"/><g isolation="isolate"><path d="M133.48,392.9l4.4-11.45h1.63l4.69,11.45h-1.73l-1.34-3.47h-4.79l-1.26,3.47h-1.61Zm3.3-4.7h3.88l-1.2-3.17c-.36-.96-.64-1.75-.81-2.38-.15,.73-.35,1.46-.62,2.19l-1.26,3.36Z" fill="#333f48"/><path d="M144.89,389.22l1.43-.12c.07,.57,.23,1.04,.47,1.41,.25,.37,.63,.66,1.15,.89,.52,.23,1.11,.34,1.76,.34,.58,0,1.09-.09,1.53-.26,.44-.17,.77-.41,.99-.71,.22-.3,.32-.63,.32-.98s-.1-.67-.31-.94c-.21-.27-.55-.49-1.03-.68-.31-.12-.99-.31-2.04-.56-1.05-.25-1.79-.49-2.21-.71-.55-.29-.95-.64-1.22-1.07-.27-.42-.4-.9-.4-1.43,0-.58,.16-1.12,.49-1.62s.81-.88,1.44-1.14c.63-.26,1.33-.39,2.1-.39,.85,0,1.6,.14,2.25,.41s1.15,.68,1.5,1.21c.35,.53,.54,1.13,.56,1.8l-1.45,.11c-.08-.72-.34-1.27-.79-1.64-.45-.37-1.12-.55-2-.55s-1.58,.17-2,.5c-.42,.34-.63,.74-.63,1.21,0,.41,.15,.75,.45,1.02,.29,.27,1.05,.54,2.29,.82,1.23,.28,2.08,.52,2.54,.73,.67,.31,1.16,.7,1.48,1.17,.32,.47,.48,1.01,.48,1.63s-.17,1.18-.52,1.72c-.35,.54-.85,.96-1.5,1.26-.65,.3-1.39,.45-2.21,.45-1.04,0-1.91-.15-2.61-.45-.7-.3-1.25-.76-1.65-1.36s-.61-1.29-.63-2.06Z" fill="#333f48"/><path d="M156.34,392.9v-11.45h1.52v11.45h-1.52Z" fill="#333f48"/><path d="M160.46,392.9v-11.45h1.52v10.1h5.64v1.35h-7.16Z" fill="#333f48"/><path d="M173.21,392.9v-11.45h4.3c.88,0,1.58,.12,2.11,.35,.53,.23,.94,.59,1.24,1.07,.3,.48,.45,.99,.45,1.51,0,.49-.13,.95-.4,1.38s-.67,.78-1.2,1.05c.69,.2,1.23,.55,1.6,1.04,.37,.49,.56,1.07,.56,1.73,0,.54-.11,1.04-.34,1.5s-.51,.82-.84,1.07c-.33,.25-.75,.44-1.25,.57-.5,.13-1.12,.19-1.85,.19h-4.37Zm1.52-6.64h2.48c.67,0,1.15-.04,1.45-.13,.39-.11,.68-.3,.87-.57s.29-.6,.29-1c0-.38-.09-.71-.27-1-.18-.29-.44-.49-.78-.59-.34-.11-.92-.16-1.74-.16h-2.29v3.46Zm0,5.29h2.85c.49,0,.83-.02,1.03-.05,.35-.06,.64-.17,.88-.31s.43-.36,.58-.64c.15-.28,.23-.6,.23-.96,0-.43-.11-.8-.33-1.11s-.52-.54-.91-.66c-.39-.13-.95-.19-1.68-.19h-2.65v3.94Z" fill="#333f48"/></g><path d="M111.91,217.94v-1h6s0,1,0,1h-6Zm10,0v-1h6s0,1,0,1h-6Zm10,0v-1h6s0,1,0,1h-6Zm10,0v-1h6s0,1,0,1h-6Zm10,0v-1h6s0,1,0,1h-6Zm10,0v-1h6s0,1,0,1h-6Zm10,0v-1h6s0,1,0,1h-6Zm10,0v-1h6s0,1,0,1h-6Zm10,0v-1h6s0,1,0,1h-6Zm10,0v-1h6s0,1,0,1h-6Zm10,0v-1h6s0,1,0,1h-6Zm10,0v-1h6s0,1,0,1h-6Zm10,0v-1h6s0,1,0,1h-6Zm10,0v-1h6s0,1,0,1h-6Zm10,0v-1h6s0,1,0,1h-6Zm10,0v-1h6s0,1,0,1h-6Zm10,0v-1h6s0,1,0,1h-6Zm10,0v-1h6s0,1,0,1h-6Zm10,0v-1h6s0,1,0,1h-6Zm10,0v-1h6s0,1,0,1h-6Zm10,0v-1h6s0,1,0,1h-6Zm10,0v-1h6s0,1,0,1h-6Zm10,0v-1h6s0,1,0,1h-6Zm10,0v-1h6s0,1,0,1h-6Zm10,0v-1h6s0,1,0,1h-6Zm10,0v-1h6s0,1,0,1h-6Zm10,0v-1h6s0,1,0,1h-6Zm10,0v-1h6s0,1,0,1h-6Zm10,0v-1h6s0,1,0,1h-6Zm10,0v-1h6s0,1,0,1h-6Zm10,0v-1h6s0,1,0,1h-6Zm10,0v-1h6s0,1,0,1h-6Zm10,0v-1h6s0,1,0,1h-6Zm10,0v-1h6s0,1,0,1h-6Zm10,0v-1h6s0,1,0,1h-6Zm10,0v-1h6s0,1,0,1h-6Zm10,0v-1h6s0,1,0,1h-6Zm10,0v-1h6s0,1,0,1h-6Zm10,0v-1h6s0,1,0,1h-6Zm10,0v-1h6s0,1,0,1h-6Zm10,0v-1h6s0,1,0,1h-6Zm10,0v-1h6s0,1,0,1h-6Zm10,0v-1h6s0,1,0,1h-6Zm10,0v-1h6s0,1,0,1h-6Zm10,0v-1h6s0,1,0,1h-6Zm10,0v-1h6s0,1,0,1h-6Zm10,0v-1h6s0,1,0,1h-6Zm10,0v-1h6s0,1,0,1h-6Zm10,0v-1h6s0,1,0,1h-6Zm10,0v-1h6s0,1,0,1h-6Zm10,0v-1h6s0,1,0,1h-6Zm10,0v-1h6s0,1,0,1h-6Zm10,0v-1h6s0,1,0,1h-6Zm10,0v-1h6s0,1,0,1h-6Zm10,0v-1h6s0,1,0,1h-6Zm10,0v-1h6s0,1,0,1h-6Zm10,0v-1h6s0,1,0,1h-6Zm10,0v-1h6s0,1,0,1h-6Zm10,0v-1h6s0,1,0,1h-6Z" fill="#20272d"/><g isolation="isolate"><path d="M90.13,211.93v-4.31c0-1.05,.26-1.88,.79-2.46s1.27-.88,2.22-.88,1.69,.29,2.23,.88,.8,1.41,.8,2.46v2.51h3.84v1.81h-9.87Zm4.65-4.09c0-1.24-.54-1.86-1.62-1.86-.55,0-.96,.15-1.23,.46-.27,.31-.4,.77-.4,1.4v2.28h3.25v-2.28Z" fill="#222426"/><path d="M100,202.04h-9.87v-6.61h1.43v4.84h2.72v-4.56h1.41v4.56h2.88v-4.84h1.43v6.61Z" fill="#222426"/><path d="M100,184.88v1.96l-3.15,1.69c-.3,.16-.51,.35-.63,.59-.12,.23-.18,.53-.18,.88v1.37h3.96v1.78h-9.87v-4.37c0-1.12,.25-1.97,.75-2.55,.5-.58,1.22-.88,2.16-.88,.76,0,1.38,.21,1.87,.64,.49,.42,.81,1.02,.96,1.8,.14-.52,.51-.94,1.11-1.26l3.02-1.65Zm-5.73,2.66c-.26-.32-.65-.48-1.18-.48s-.94,.16-1.18,.48c-.25,.32-.37,.82-.37,1.5v2.35h3.12v-2.35c0-.68-.13-1.18-.39-1.5Z" fill="#222426"/><path d="M100,182.78h-9.87v-6.47h1.44v4.69h2.69v-4.41h1.44v4.41h4.3v1.78Z" fill="#222426"/><path d="M99.51,172.46c-.41,.7-1,1.25-1.76,1.63-.77,.38-1.66,.57-2.69,.57s-1.92-.19-2.68-.57c-.76-.38-1.35-.92-1.76-1.63-.41-.71-.62-1.54-.62-2.51s.21-1.79,.62-2.5,1-1.25,1.76-1.62,1.65-.57,2.68-.57,1.92,.19,2.69,.57c.77,.38,1.35,.93,1.76,1.63,.41,.7,.62,1.53,.62,2.48s-.21,1.79-.62,2.5Zm-1.76-4.62c-.62-.51-1.52-.76-2.69-.76s-2.06,.25-2.68,.76c-.62,.51-.93,1.22-.93,2.12s.31,1.63,.93,2.13c.62,.51,1.51,.76,2.68,.76s2.06-.25,2.69-.76c.62-.51,.94-1.22,.94-2.13s-.31-1.61-.94-2.12Z" fill="#222426"/><path d="M100,154.53v1.96l-3.15,1.69c-.3,.16-.51,.35-.63,.59-.12,.23-.18,.53-.18,.88v1.37h3.96v1.78h-9.87v-4.37c0-1.12,.25-1.97,.75-2.55,.5-.58,1.22-.88,2.16-.88,.76,0,1.38,.21,1.87,.64,.49,.42,.81,1.02,.96,1.8,.14-.52,.51-.94,1.11-1.26l3.02-1.65Zm-5.73,2.66c-.26-.32-.65-.48-1.18-.48s-.94,.16-1.18,.48c-.25,.32-.37,.82-.37,1.5v2.35h3.12v-2.35c0-.68-.13-1.18-.39-1.5Z" fill="#222426"/><path d="M90.13,144.21v-1.41h9.87v1.6h-6.52l4.93,2.6v1.2l-4.86,2.62h6.45s0,1.58,0,1.58h-9.87v-1.43l6.45-3.39-6.45-3.37Z" fill="#222426"/><path d="M100,132.47l-2.31,.99v4.8l2.31,.99v1.82l-9.87-4.47v-1.47l9.87-4.47v1.79Zm-3.71,5.21v-3.61l-4.2,1.81,4.2,1.81Z" fill="#222426"/><path d="M90.13,122.34v-1.69h9.87v1.36l-6.89,5.29h6.89v1.68h-9.87v-1.34l6.87-5.29h-6.87Z" fill="#222426"/><path d="M99.5,115.94c-.42,.72-1.01,1.28-1.77,1.67-.77,.39-1.66,.58-2.67,.58s-1.91-.19-2.67-.58c-.76-.39-1.35-.94-1.76-1.67s-.62-1.57-.62-2.54c0-.66,.1-1.29,.31-1.88,.21-.59,.5-1.08,.87-1.48l1.32,.6c-.35,.45-.61,.89-.78,1.33-.16,.44-.25,.91-.25,1.4,0,.95,.31,1.69,.92,2.2,.62,.52,1.5,.78,2.66,.78s2.06-.26,2.67-.78c.62-.52,.92-1.25,.92-2.2,0-.49-.08-.96-.25-1.4-.16-.44-.42-.88-.78-1.33l1.32-.6c.37,.4,.66,.9,.87,1.48s.31,1.21,.31,1.88c0,.97-.21,1.82-.62,2.54Z" fill="#222426"/><path d="M100,107.74h-9.87v-6.61h1.43v4.84h2.72v-4.56h1.41v4.56h2.88v-4.84h1.43v6.61Z" fill="#222426"/></g></svg>