
<!-- Generated by Microsoft Visio 11.0, SVG Export, v1.0 monitor.svg Page-1 -->
<!DOCTYPE svg
  PUBLIC "-//W3C//DTD SVG 1.1//EN" "http://www.w3.org/Graphics/SVG/1.1/DTD/svg11.dtd">
<svg xmlns:ev="http://www.w3.org/2001/xml-events" xmlns:xlink="http://www.w3.org/1999/xlink" xmlns="http://www.w3.org/2000/svg" xmlns:v="http://schemas.microsoft.com/visio/2003/SVGExtensions/" width="272.51424" height="189.3648" viewBox="0 0 204.386 142.024" xml:space="preserve" color-interpolation-filters="sRGB" class="st8" preserveAspectRatio="xMidYMid meet" zoomAndPan="magnify" version="1.1" contentScriptType="text/ecmascript" contentStyleType="text/css"><style type="text/css" xml:space="preserve">
	
		.st1 {fill:#ffffff;stroke:#000000;stroke-linecap:butt;stroke-width:0.5}
		.st2 {fill:#000000;font-family:Arial,Helvetica,sans-serif;font-size:0.666664em}
		.st3 {font-size:1em}
		.st4 {stroke:#000000;stroke-dasharray:9.6,4.8;stroke-linecap:butt;stroke-width:1.2}
		.st5 {fill:none;stroke:none;stroke-linecap:butt;stroke-width:0.5}
		.st6 {marker-end:url(#mrkr4-34);stroke:#000000;stroke-linecap:butt;stroke-width:0.5}
		.st7 {fill:#000000;fill-opacity:1;stroke:#000000;stroke-opacity:1;stroke-width:0.16556291390728}
		.st8 {fill:none;fill-rule:evenodd;font-size:12px;overflow:visible;stroke-linecap:square;stroke-miterlimit:3}
	
	</style><defs id="Markers"><g id="lend4"><path d="M 2 1 L -0 0 L 2 -1 L 2 1 " style="stroke:none"/></g><marker overflow="visible" id="mrkr4_34" class="st7" refX="-11.36" orient="auto" markerUnits="strokeWidth" preserveAspectRatio="xMidYMid meet"><use xlink:href="#lend4" transform="scale(-6.04,-6.04) " xlink:type="simple" xlink:show="embed" xlink:actuate="onLoad"/></marker></defs><g><title>Page-1</title><g id="shape1_1" transform="translate(0.5,-48.689)"><title>Block</title><desc>Non-secure Privileged</desc><rect x="0" y="95.9606" width="92.126" height="46.063" rx="5.66929" ry="5.66929" class="st1"/><text x="25.39" y="116.59" class="st2">Non-secure<tspan x="28.5" dy="9.5999616" class="st3">Privileged</tspan></text></g><g id="shape2_5" transform="translate(0.5,-17.5079)"><title>Block.2</title><desc>Non-secure User</desc><rect x="0" y="115.094" width="92.126" height="26.9291" rx="5.66929" ry="5.66929" class="st1"/><text x="25.39" y="126.16" class="st2">Non-secure<tspan x="37.62" dy="9.5999616" class="st3">User</tspan></text></g><g id="shape5_9" transform="translate(68.5315,-114.594)"><title>Block.5</title><desc>Monitor</desc><rect x="0" y="115.094" width="64.4882" height="26.9291" rx="5.66929" ry="5.66929" class="st1"/><text x="18.91" y="130.96" class="st2">Monitor</text></g><g id="shape6_12" transform="translate(243.154,43.0197) rotate(90)"><title>Sheet.6</title><path d="M0 142.02 L95.67 142.02" class="st4"/></g><g id="shape7_15" transform="translate(13.9646,-0.5)"><title>Sheet.7</title><desc>Normal world</desc><rect x="0" y="130.685" width="66.9685" height="11.3386" class="st5"/><text x="9.92" y="138.75" class="st2">Normal world</text></g><g id="shape8_18" transform="translate(122.744,-0.5)"><title>Sheet.8</title><desc>Secure world</desc><rect x="0" y="130.685" width="66.9685" height="11.3386" class="st5"/><text x="10.14" y="138.75" class="st2">Secure world</text></g><g id="shape3_21" transform="translate(111.76,-47.9803)"><title>Block.3</title><desc>Secure Privileged</desc><rect x="0" y="95.9606" width="92.126" height="46.063" rx="5.66929" ry="5.66929" class="st1"/><text x="33.39" y="116.59" class="st2">Secure<tspan x="28.5" dy="9.5999616" class="st3">Privileged</tspan></text></g><g id="shape4_25" transform="translate(111.76,-16.7992)"><title>Block.4</title><desc>Secure User</desc><rect x="0" y="115.094" width="92.126" height="26.9291" rx="5.66929" ry="5.66929" class="st1"/><text x="33.39" y="126.16" class="st2">Secure<tspan x="37.62" dy="9.5999616" class="st3">User</tspan></text></g><g id="shape9_29" transform="translate(180.748,87.9796) rotate(123.408)"><title>Sheet.9</title><path d="M-0 134.43 A33.3071 21.9685 -33.41 0 0 34.67 137.44 L34.98 137.26" class="st6"/></g><g id="shape10_35" transform="translate(247.776,-69.7118) rotate(53.9017)"><title>Sheet.10</title><path d="M-0 142.02 A34.0157 24.8031 36.1 0 1 37 138.79 L37.3 138.98" class="st6"/></g></g></svg>
