
<!-- Generated by Microsoft Visio 11.0, SVG Export, v1.0 cpsr_bits.svg Page-1 -->
<!DOCTYPE svg
  PUBLIC "-//W3C//DTD SVG 1.1//EN" "http://www.w3.org/Graphics/SVG/1.1/DTD/svg11.dtd">
<svg xmlns:ev="http://www.w3.org/2001/xml-events" xmlns:xlink="http://www.w3.org/1999/xlink" xmlns="http://www.w3.org/2000/svg" xmlns:v="http://schemas.microsoft.com/visio/2003/SVGExtensions/" width="520.40448" height="43.40544" viewBox="0 0 390.303 32.5541" xml:space="preserve" color-interpolation-filters="sRGB" class="st7" preserveAspectRatio="xMidYMid meet" zoomAndPan="magnify" version="1.1" contentScriptType="text/ecmascript" contentStyleType="text/css"><style type="text/css" xml:space="preserve">
	
		.st1 {fill:none;stroke:#000000;stroke-linecap:butt;stroke-opacity:0.74;stroke-width:0.24}
		.st2 {fill:none;stroke:none;stroke-linecap:butt;stroke-width:0.24}
		.st3 {fill:#000000;font-family:'Lucida Sans Typewriter','Lucida Console','Courier New',Courier,monospace;font-size:0.666664em}
		.st4 {fill:#000000;font-family:'Lucida Sans Typewriter','Lucida Console','Courier New',Courier,monospace;font-size:0.499992em}
		.st5 {font-size:1em}
		.st6 {fill:#000000;font-family:'Lucida Sans Typewriter','Lucida Console','Courier New',Courier,monospace;font-size:0.625008em}
		.st7 {fill:none;fill-rule:evenodd;font-size:12px;overflow:visible;stroke-linecap:square;stroke-miterlimit:3}
	
	</style><g><title>Page-1</title><g id="shape4_1" transform="translate(0.24,-0.240007)"><title>rect2837</title><rect x="0" y="11.2942" width="53.1496" height="21.2598" class="st1"/></g><g id="shape5_3" transform="translate(58.7046,-0.240007)"><title>rect2839</title><rect x="0" y="11.2942" width="21.2598" height="21.2598" class="st1"/></g><g id="shape6_5" transform="translate(85.2794,-0.24)"><title>rect2841</title><rect x="0" y="11.2942" width="10.6299" height="21.2598" class="st1"/></g><g id="shape7_7" transform="translate(101.224,-0.240007)"><title>rect2843</title><rect x="0" y="11.2942" width="42.5197" height="21.2598" class="st1"/></g><g id="shape8_9" transform="translate(149.059,-0.240007)"><title>rect2847</title><rect x="0" y="11.2942" width="42.5197" height="21.2598" class="st1"/></g><g id="shape9_11" transform="translate(196.894,-0.240007)"><title>rect2849</title><rect x="0" y="11.2942" width="53.1496" height="21.2598" class="st1"/></g><g id="shape10_13" transform="translate(255.358,-0.240007)"><title>rect2851</title><rect x="0" y="11.2942" width="10.6299" height="21.2598" class="st1"/></g><g id="shape11_15" transform="translate(270.638,-0.246018)"><title>rect2853</title><rect x="0" y="11.3063" width="11.2945" height="21.2478" class="st1"/></g><g id="shape12_17" transform="translate(287.248,-0.240001)"><title>rect2855</title><rect x="0" y="11.2942" width="10.6299" height="21.2598" class="st1"/></g><g id="shape13_19" transform="translate(303.193,-0.240001)"><title>rect2857</title><rect x="0" y="11.2942" width="10.6299" height="21.2598" class="st1"/></g><g id="shape14_21" transform="translate(319.138,-0.240001)"><title>rect2859</title><rect x="0" y="11.2942" width="10.6299" height="21.2598" class="st1"/></g><g id="shape15_23" transform="translate(335.083,-0.240001)"><title>rect2861</title><rect x="0" y="11.2942" width="53.1496" height="21.2598" class="st1"/></g><g id="shape16_25" transform="translate(2.62428,-6.1045)"><title>text2863</title><desc>N Z C V Q</desc><rect x="0" y="21.7541" width="46.726" height="10.8" class="st2"/><text x="0" y="29.55" class="st3">N Z C V Q</text></g><g id="shape17_28" transform="translate(56.1002,-3.71727)"><title>text2867</title><desc>IT [1:0]</desc><rect x="0" y="16.6229" width="24.7853" height="15.9312" class="st2"/><text x="8.78" y="22.79" class="st4">IT<tspan x="3.35" dy="7.1998848" class="st5">[</tspan>1:0]</text></g><g id="shape18_32" transform="translate(87.5657,-5.57056)"><title>text2871</title><desc>J</desc><rect x="0" y="21.7541" width="9.05" height="10.8" class="st2"/><text x="0" y="29.55" class="st3">J</text></g><g id="shape19_35" transform="translate(103.35,-5.61759)"><title>text2875</title><desc>Reserved</desc><rect x="0" y="22.6541" width="41.2951" height="9.9" class="st2"/><text x="0" y="30" class="st3">Reserved</text></g><g id="shape20_38" transform="translate(151.725,-5.95729)"><title>text2879</title><desc>GE[3:0]</desc><rect x="0" y="21.7541" width="40.9686" height="10.8" class="st2"/><text x="0" y="29.55" class="st3">GE[3:0]</text></g><g id="shape21_41" transform="translate(205.305,-5.95729)"><title>text2883</title><desc>IT[7:2]</desc><rect x="0" y="21.7541" width="42.0453" height="10.8" class="st2"/><text x="0" y="29.55" class="st3">IT[7:2]</text></g><g id="shape22_44" transform="translate(258.095,-5.50465)"><title>text2887</title><desc>E</desc><rect x="0" y="21.7541" width="9.05" height="10.8" class="st2"/><text x="0" y="29.55" class="st3">E</text></g><g id="shape23_47" transform="translate(273.558,-5.50465)"><title>text2891</title><desc>A</desc><rect x="0" y="21.7541" width="9.05" height="10.8" class="st2"/><text x="0" y="29.55" class="st3">A</text></g><g id="shape24_50" transform="translate(289.837,-5.50465)"><title>text2895</title><desc>I</desc><rect x="0" y="21.7541" width="9.05" height="10.8" class="st2"/><text x="0" y="29.55" class="st3">I</text></g><g id="shape25_53" transform="translate(305.622,-5.50465)"><title>text2899</title><desc>F</desc><rect x="0" y="21.7541" width="9.05" height="10.8" class="st2"/><text x="0" y="29.55" class="st3">F</text></g><g id="shape26_56" transform="translate(321.734,-5.50465)"><title>text2903</title><desc>T</desc><rect x="0" y="21.7541" width="9.05" height="10.8" class="st2"/><text x="0" y="29.55" class="st3">T</text></g><g id="shape27_59" transform="translate(346.645,-5.95729)"><title>text2907</title><desc>M[4:0]</desc><rect x="0" y="21.7541" width="35.7055" height="10.8" class="st2"/><text x="0" y="29.55" class="st3">M[4:0]</text></g><g id="shape28_62" transform="translate(1.2057,-23.3141)"><title>text2921</title><desc>31</desc><rect x="0" y="23.5541" width="15.05" height="9" class="st2"/><text x="0" y="30.3" class="st6">31</text></g><g id="shape29_65" transform="translate(44.1624,-23.3141)"><title>text2925</title><desc>27</desc><rect x="0" y="23.5541" width="15.05" height="9" class="st2"/><text x="0" y="30.3" class="st6">27</text></g><g id="shape30_68" transform="translate(59.0117,-23.3141)"><title>text2929</title><desc>26</desc><rect x="0" y="23.5541" width="15.05" height="9" class="st2"/><text x="0" y="30.3" class="st6">26</text></g><g id="shape31_71" transform="translate(72.3609,-23.3141)"><title>text2933</title><desc>25</desc><rect x="0" y="23.5541" width="15.05" height="9" class="st2"/><text x="0" y="30.3" class="st6">25</text></g><g id="shape32_74" transform="translate(85.6192,-23.3141)"><title>text2937</title><desc>24</desc><rect x="0" y="23.5541" width="15.05" height="9" class="st2"/><text x="0" y="30.3" class="st6">24</text></g><g id="shape33_77" transform="translate(101.438,-23.3141)"><title>text2941</title><desc>23</desc><rect x="0" y="23.5541" width="15.05" height="9" class="st2"/><text x="0" y="30.3" class="st6">23</text></g><g id="shape34_80" transform="translate(133.606,-23.3141)"><title>text2945</title><desc>20</desc><rect x="0" y="23.5541" width="15.05" height="9" class="st2"/><text x="0" y="30.3" class="st6">20</text></g><g id="shape35_83" transform="translate(148.107,-23.3141)"><title>text2949</title><desc>19</desc><rect x="0" y="23.5541" width="15.05" height="9" class="st2"/><text x="0" y="30.3" class="st6">19</text></g><g id="shape36_86" transform="translate(181.518,-23.3141)"><title>text2953</title><desc>16</desc><rect x="0" y="23.5541" width="15.05" height="9" class="st2"/><text x="0" y="30.3" class="st6">16</text></g><g id="shape37_89" transform="translate(197.428,-23.3141)"><title>text2957</title><desc>15</desc><rect x="0" y="23.5541" width="15.05" height="9" class="st2"/><text x="0" y="30.3" class="st6">15</text></g><g id="shape38_92" transform="translate(239.854,-23.3141)"><title>text2961</title><desc>10</desc><rect x="0" y="23.5541" width="15.05" height="9" class="st2"/><text x="0" y="30.3" class="st6">10</text></g><g id="shape39_95" transform="translate(258.227,-23.3141)"><title>text2965</title><desc>9</desc><rect x="0" y="23.5541" width="7.55" height="9" class="st2"/><text x="0" y="30.3" class="st6">9</text></g><g id="shape40_98" transform="translate(274.008,-23.3141)"><title>text2969</title><desc>8</desc><rect x="0" y="23.5541" width="7.55" height="9" class="st2"/><text x="0" y="30.3" class="st6">8</text></g><g id="shape41_101" transform="translate(290.353,-23.3141)"><title>text2973</title><desc>7</desc><rect x="0" y="23.5541" width="7.55" height="9" class="st2"/><text x="0" y="30.3" class="st6">7</text></g><g id="shape42_104" transform="translate(306.058,-23.3141)"><title>text2977</title><desc>6</desc><rect x="0" y="23.5541" width="7.55" height="9" class="st2"/><text x="0" y="30.3" class="st6">6</text></g><g id="shape43_107" transform="translate(322.192,-23.3141)"><title>text2981</title><desc>5</desc><rect x="0" y="23.5541" width="7.55" height="9" class="st2"/><text x="0" y="30.3" class="st6">5</text></g><g id="shape44_110" transform="translate(335.935,-23.3141)"><title>text2985</title><desc>4</desc><rect x="0" y="23.5541" width="7.55" height="9" class="st2"/><text x="0" y="30.3" class="st6">4</text></g><g id="shape45_113" transform="translate(382.513,-23.3141)"><title>text2989</title><desc>0</desc><rect x="0" y="23.5541" width="7.55" height="9" class="st2"/><text x="0" y="30.3" class="st6">0</text></g></g></svg>
