
<!-- Generated by Microsoft Visio 11.0, SVG Export, v1.0 virtualized_worlds.svg Page-1 -->
<!DOCTYPE svg
  PUBLIC "-//W3C//DTD SVG 1.1//EN" "http://www.w3.org/Graphics/SVG/1.1/DTD/svg11.dtd">
<svg xmlns:ev="http://www.w3.org/2001/xml-events" xmlns:xlink="http://www.w3.org/1999/xlink" xmlns="http://www.w3.org/2000/svg" xmlns:v="http://schemas.microsoft.com/visio/2003/SVGExtensions/" width="398.184" height="180.86112" viewBox="0 0 298.638 135.646" xml:space="preserve" color-interpolation-filters="sRGB" class="st5" preserveAspectRatio="xMidYMid meet" zoomAndPan="magnify" version="1.1" contentScriptType="text/ecmascript" contentStyleType="text/css"><style type="text/css" xml:space="preserve">
	
		.st1 {fill:#ffffff;stroke:#000000;stroke-linecap:butt;stroke-width:0.5}
		.st2 {fill:#000000;font-family:Arial,Helvetica,sans-serif;font-size:0.666664em}
		.st3 {stroke:#000000;stroke-dasharray:9.6,4.8;stroke-linecap:butt;stroke-width:1.2}
		.st4 {fill:none;stroke:none;stroke-linecap:butt;stroke-width:0.5}
		.st5 {fill:none;fill-rule:evenodd;font-size:12px;overflow:visible;stroke-linecap:square;stroke-miterlimit:3}
	
	</style><g><title>Page-1</title><g id="shape1_1" transform="translate(96.1693,-93.689)"><title>Block</title><desc>Application</desc><rect x="0" y="108.717" width="92.126" height="26.9291" rx="5.66929" ry="5.66929" class="st1"/><text x="26.49" y="124.58" class="st2">Application</text></g><g id="shape2_4" transform="translate(96.1693,-62.5079)"><title>Block.2</title><desc>Guest OS</desc><rect x="0" y="108.717" width="92.126" height="26.9291" rx="5.66929" ry="5.66929" class="st1"/><text x="28.5" y="124.58" class="st2">Guest OS</text></g><g id="shape3_7" transform="translate(205.303,-93.689)"><title>Block.3</title><desc>Trusted services</desc><rect x="0" y="108.717" width="92.126" height="26.9291" rx="5.66929" ry="5.66929" class="st1"/><text x="16.72" y="124.58" class="st2">Trusted services</text></g><g id="shape4_10" transform="translate(206.72,-30.2638)"><title>Block.4</title><desc>Trusted OS</desc><rect x="0" y="76.4724" width="90" height="59.1732" rx="5.66929" ry="5.66929" class="st1"/><text x="24.55" y="108.46" class="st2">Trusted OS</text></g><g id="shape5_13" transform="translate(0.5,-0.5)"><title>Block.5</title><desc>Secure monitor</desc><rect x="0" y="108.717" width="296.22" height="26.9291" rx="5.66929" ry="5.66929" class="st1"/><text x="120.99" y="124.58" class="st2">Secure monitor</text></g><g id="shape6_16" transform="translate(332.445,10.7756) rotate(90)"><title>Sheet.6</title><path d="M0 135.65 L91.77 135.65" class="st3"/></g><g id="shape7_19" transform="translate(0.5,-94.0433)"><title>Block.7</title><desc>Application</desc><rect x="0" y="108.717" width="92.126" height="26.9291" rx="5.66929" ry="5.66929" class="st1"/><text x="26.49" y="124.58" class="st2">Application</text></g><g id="shape8_22" transform="translate(0.5,-61.4449)"><title>Block.8</title><desc>Guest OS</desc><rect x="0" y="108.717" width="92.126" height="26.9291" rx="5.66929" ry="5.66929" class="st1"/><text x="28.5" y="124.58" class="st2">Guest OS</text></g><g id="shape9_25" transform="translate(0.5,-30.9724)"><title>Block.9</title><desc>Hypervisor</desc><rect x="0" y="108.717" width="185.669" height="26.9291" rx="5.66929" ry="5.66929" class="st1"/><text x="73.72" y="124.58" class="st2">Hypervisor</text></g><g id="shape10_28" transform="translate(48.689,-123.807)"><title>Sheet.10</title><desc>Normal world</desc><rect x="0" y="124.307" width="93.5433" height="11.3386" class="st4"/><text x="23.21" y="132.38" class="st2">Normal world</text></g><g id="shape11_31" transform="translate(204.594,-123.807)"><title>Sheet.11</title><desc>Secure world</desc><rect x="0" y="124.307" width="93.5433" height="11.3386" class="st4"/><text x="23.43" y="132.38" class="st2">Secure world</text></g></g></svg>
