
<!-- Generated by Microsoft Visio 11.0, SVG Export, v1.0 programmer_visible_registers.svg Page-1 -->
<!DOCTYPE svg
  PUBLIC "-//W3C//DTD SVG 1.1//EN" "http://www.w3.org/Graphics/SVG/1.1/DTD/svg11.dtd">
<svg xmlns:ev="http://www.w3.org/2001/xml-events" xmlns:xlink="http://www.w3.org/1999/xlink" xmlns="http://www.w3.org/2000/svg" xmlns:v="http://schemas.microsoft.com/visio/2003/SVGExtensions/" width="355.76544" height="357.3072" viewBox="0 0 266.824 267.98" xml:space="preserve" color-interpolation-filters="sRGB" class="st8" preserveAspectRatio="xMidYMid meet" zoomAndPan="magnify" version="1.1" contentScriptType="text/ecmascript" contentStyleType="text/css"><style type="text/css" xml:space="preserve">
	
		.st1 {fill:none;stroke:#000000;stroke-linecap:butt;stroke-opacity:0.74;stroke-width:0.903543}
		.st2 {fill:none;stroke:none;stroke-linecap:butt;stroke-width:0.75}
		.st3 {fill:#000000;font-family:'Lucida Sans Typewriter','Lucida Console','Courier New',Courier,monospace;font-size:0.666664em}
		.st4 {font-size:0.749991em}
		.st5 {fill:#000000;font-family:'Lucida Sans Typewriter','Lucida Console','Courier New',Courier,monospace;font-size:0.625008em}
		.st6 {fill:none}
		.st7 {stroke:#000000;stroke-linecap:butt;stroke-width:0.75}
		.st8 {fill:none;fill-rule:evenodd;font-size:12px;overflow:visible;stroke-linecap:square;stroke-miterlimit:3}
	
	</style><g><title>Page-1</title><g id="shape4_1" transform="translate(70.8732,-0.903543)"><title>rect2869</title><rect x="0" y="254.693" width="39.8622" height="13.2874" class="st1"/></g><g id="shape5_3" transform="translate(81.6771,-4.36889)"><title>text3027</title><desc>CPSR</desc><rect x="0" y="258.98" width="30.05" height="9" class="st2"/><text x="0" y="265.88" class="st3">CPSR</text></g><g id="shape6_6" transform="translate(71.5109,-253.789)"><title>rect2837</title><rect x="0" y="254.693" width="39.8622" height="13.2874" class="st1"/></g><g id="shape7_8" transform="translate(87.0262,-255.808)"><title>text3072</title><desc>R0</desc><rect x="0" y="258.98" width="15.05" height="9" class="st2"/><text x="0" y="265.88" class="st3">R0</text></g><g id="shape8_11" transform="translate(71.511,-237.984)"><title>rect2839</title><rect x="0" y="254.693" width="39.8622" height="13.2874" class="st1"/></g><g id="shape9_13" transform="translate(87.0243,-240.003)"><title>text3076</title><desc>R1</desc><rect x="0" y="258.98" width="15.05" height="9" class="st2"/><text x="0" y="265.88" class="st3">R1</text></g><g id="shape10_16" transform="translate(71.5109,-222.179)"><title>rect2841</title><rect x="0" y="254.693" width="39.8622" height="13.2874" class="st1"/></g><g id="shape11_18" transform="translate(87.0591,-224.197)"><title>text3080</title><desc>R2</desc><rect x="0" y="258.98" width="15.05" height="9" class="st2"/><text x="0" y="265.88" class="st3">R2</text></g><g id="shape12_21" transform="translate(71.511,-206.373)"><title>rect2843</title><rect x="0" y="254.693" width="39.8622" height="13.2874" class="st1"/></g><g id="shape13_23" transform="translate(86.9786,-208.392)"><title>text3084</title><desc>R3</desc><rect x="0" y="258.98" width="15.05" height="9" class="st2"/><text x="0" y="265.88" class="st3">R3</text></g><g id="shape14_26" transform="translate(71.511,-190.568)"><title>rect2845</title><rect x="0" y="254.693" width="39.8622" height="13.2874" class="st1"/></g><g id="shape15_28" transform="translate(87.0628,-192.587)"><title>text3088</title><desc>R4</desc><rect x="0" y="258.98" width="15.05" height="9" class="st2"/><text x="0" y="265.88" class="st3">R4</text></g><g id="shape16_31" transform="translate(71.511,-174.763)"><title>rect2847</title><rect x="0" y="254.693" width="39.8622" height="13.2874" class="st1"/></g><g id="shape17_33" transform="translate(86.9786,-176.781)"><title>text3092</title><desc>R5</desc><rect x="0" y="258.98" width="15.05" height="9" class="st2"/><text x="0" y="265.88" class="st3">R5</text></g><g id="shape18_36" transform="translate(71.511,-158.957)"><title>rect2849</title><rect x="0" y="254.693" width="39.8622" height="13.2874" class="st1"/></g><g id="shape19_38" transform="translate(86.9401,-160.976)"><title>text3096</title><desc>R6</desc><rect x="0" y="258.98" width="15.05" height="9" class="st2"/><text x="0" y="265.88" class="st3">R6</text></g><g id="shape20_41" transform="translate(71.511,-143.152)"><title>rect2851</title><rect x="0" y="254.693" width="39.8622" height="13.2874" class="st1"/></g><g id="shape21_43" transform="translate(87.0628,-145.171)"><title>text3100</title><desc>R7</desc><rect x="0" y="258.98" width="15.05" height="9" class="st2"/><text x="0" y="265.88" class="st3">R7</text></g><g id="shape22_46" transform="translate(71.511,-127.346)"><title>rect2853</title><rect x="0" y="254.693" width="39.8622" height="13.2874" class="st1"/></g><g id="shape23_48" transform="translate(87.0243,-129.365)"><title>text3104</title><desc>R8</desc><rect x="0" y="258.98" width="15.05" height="9" class="st2"/><text x="0" y="265.88" class="st3">R8</text></g><g id="shape24_51" transform="translate(71.511,-111.541)"><title>rect2855</title><rect x="0" y="254.693" width="39.8622" height="13.2874" class="st1"/></g><g id="shape25_53" transform="translate(86.9383,-113.56)"><title>text3108</title><desc>R9</desc><rect x="0" y="258.98" width="15.05" height="9" class="st2"/><text x="0" y="265.88" class="st3">R9</text></g><g id="shape26_56" transform="translate(71.511,-95.7357)"><title>rect2857</title><rect x="0" y="254.693" width="39.8622" height="13.2874" class="st1"/></g><g id="shape27_58" transform="translate(84.7776,-97.7546)"><title>text3112</title><desc>R10</desc><rect x="0" y="258.98" width="22.55" height="9" class="st2"/><text x="0" y="265.88" class="st3">R10</text></g><g id="shape28_61" transform="translate(71.511,-79.9304)"><title>rect2859</title><rect x="0" y="254.693" width="39.8622" height="13.2874" class="st1"/></g><g id="shape29_63" transform="translate(84.7758,-81.9492)"><title>text3116</title><desc>R11</desc><rect x="0" y="258.98" width="22.55" height="9" class="st2"/><text x="0" y="265.88" class="st3">R11</text></g><g id="shape30_66" transform="translate(71.511,-64.125)"><title>rect2861</title><rect x="0" y="254.693" width="39.8622" height="13.2874" class="st1"/></g><g id="shape31_68" transform="translate(84.8106,-66.1438)"><title>text3120</title><desc>R12</desc><rect x="0" y="258.98" width="22.55" height="9" class="st2"/><text x="0" y="265.88" class="st3">R12</text></g><g id="shape32_71" transform="translate(71.511,-48.3196)"><title>rect2863</title><rect x="0" y="254.693" width="39.8622" height="13.2874" class="st1"/></g><g id="shape33_73" transform="translate(74.1941,-50.3384)"><title>text3124</title><desc>R13 (SP)</desc><rect x="0" y="258.98" width="60.05" height="9" class="st2"/><text x="0" y="265.88" class="st3">R13<tspan class="st4"> </tspan>(SP)</text></g><g id="shape34_77" transform="translate(71.511,-32.5143)"><title>rect2865</title><rect x="0" y="254.693" width="39.8622" height="13.2874" class="st1"/></g><g id="shape35_79" transform="translate(74.1941,-34.5331)"><title>text3128</title><desc>R14 (LR)</desc><rect x="0" y="258.98" width="60.05" height="9" class="st2"/><text x="0" y="265.88" class="st3">R14<tspan class="st4"> </tspan>(LR)</text></g><g id="shape36_83" transform="translate(71.511,-16.7089)"><title>rect2867</title><rect x="0" y="254.693" width="39.8622" height="13.2874" class="st1"/></g><g id="shape37_85" transform="translate(74.1941,-18.7277)"><title>text3132</title><desc>R15 (PC)</desc><rect x="0" y="258.98" width="60.05" height="9" class="st2"/><text x="0" y="265.88" class="st3">R15<tspan class="st4"> </tspan>(PC)</text></g><g id="shape39_89" transform="translate(5.72447,-49.7303)"><title>text3035</title><desc>Stack pointer</desc><rect x="0" y="258.98" width="66.1989" height="9" class="st2"/><text x="0" y="265.88" class="st3">Stack pointer</text></g><g id="shape40_92" transform="translate(5.72447,-33.9803)"><title>text3041</title><desc>Link register</desc><rect x="0" y="258.98" width="66.1989" height="9" class="st2"/><text x="0" y="265.88" class="st3">Link register</text></g><g id="shape41_95" transform="translate(0.75,-18.2303)"><title>text3049</title><desc>Program Counter</desc><rect x="0" y="258.98" width="70.6989" height="9" class="st2"/><text x="0" y="265.73" class="st5">Program Counter</text></g><g id="shape42_98" transform="translate(118.875,-3.60529)"><title>text3057</title><desc>Current Program Status Register</desc><rect x="0" y="258.98" width="147.199" height="9" class="st2"/><text x="0" y="265.73" class="st5">Current Program Status Register</text></g><g id="shape44_101" transform="translate(129.46,-143.353)"><title>path3031-1</title><path d="M0.18 144.68 L13.29 144.68 L13.29 267.98 L0 267.98 L0.18 144.68 Z" class="st6"/><path d="M0.18 144.68 L13.29 144.68 L13.29 267.98 L0 267.98" class="st7"/></g><g id="shape45_104" transform="translate(129.46,-17.3729)"><title>path3031-4</title><path d="M0.18 144.15 L13.29 144.15 L13.29 267.98 L0 267.98 L0.18 144.15 Z" class="st6"/><path d="M0.18 144.15 L13.29 144.15 L13.29 267.98 L0 267.98" class="st7"/></g><g id="shape46_107" transform="translate(152.837,-193.73)"><title>text3061-0</title><desc>Low Registers</desc><rect x="0" y="251.627" width="63.2022" height="16.3537" class="st2"/><text x="0" y="262.2" class="st3">Low Registers</text></g><g id="shape47_110" transform="translate(152.736,-72.2303)"><title>text3061-0-8</title><desc>High Registers</desc><rect x="0" y="255.841" width="72.2022" height="12.1392" class="st2"/><text x="0" y="264.31" class="st3">High Registers</text></g></g></svg>
